%TF.GenerationSoftware,KiCad,Pcbnew,9.0.6*%
%TF.CreationDate,2026-08-07T03:23:20+03:00*%
%TF.ProjectId,RetroCom_Station2,52657472-6f43-46f6-9d5f-53746174696f,rev?*%
%TF.SameCoordinates,Original*%
%TF.FileFunction,Copper,L1,Top*%
%TF.FilePolarity,Positive*%
%FSLAX46Y46*%
G04 Gerber Fmt 4.6, Leading zero omitted, Abs format (unit mm)*
G04 Created by KiCad (PCBNEW 9.0.6) date 2026-08-07 03:23:20*
%MOMM*%
%LPD*%
G01*
G04 APERTURE LIST*
G04 Aperture macros list*
%AMRoundRect*
0 Rectangle with rounded corners*
0 $1 Rounding radius*
0 $2 $3 $4 $5 $6 $7 $8 $9 X,Y pos of 4 corners*
0 Add a 4 corners polygon primitive as box body*
4,1,4,$2,$3,$4,$5,$6,$7,$8,$9,$2,$3,0*
0 Add four circle primitives for the rounded corners*
1,1,$1+$1,$2,$3*
1,1,$1+$1,$4,$5*
1,1,$1+$1,$6,$7*
1,1,$1+$1,$8,$9*
0 Add four rect primitives between the rounded corners*
20,1,$1+$1,$2,$3,$4,$5,0*
20,1,$1+$1,$4,$5,$6,$7,0*
20,1,$1+$1,$6,$7,$8,$9,0*
20,1,$1+$1,$8,$9,$2,$3,0*%
G04 Aperture macros list end*
%TA.AperFunction,ComponentPad*%
%ADD10C,1.600000*%
%TD*%
%TA.AperFunction,ComponentPad*%
%ADD11R,1.700000X1.700000*%
%TD*%
%TA.AperFunction,ComponentPad*%
%ADD12C,1.700000*%
%TD*%
%TA.AperFunction,ComponentPad*%
%ADD13RoundRect,0.250000X0.550000X0.550000X-0.550000X0.550000X-0.550000X-0.550000X0.550000X-0.550000X0*%
%TD*%
%TA.AperFunction,ComponentPad*%
%ADD14RoundRect,0.250000X-0.550000X-0.550000X0.550000X-0.550000X0.550000X0.550000X-0.550000X0.550000X0*%
%TD*%
%TA.AperFunction,ComponentPad*%
%ADD15RoundRect,0.250001X-0.949999X-0.949999X0.949999X-0.949999X0.949999X0.949999X-0.949999X0.949999X0*%
%TD*%
%TA.AperFunction,ComponentPad*%
%ADD16C,2.400000*%
%TD*%
%TA.AperFunction,ComponentPad*%
%ADD17R,1.050000X1.500000*%
%TD*%
%TA.AperFunction,ComponentPad*%
%ADD18O,1.050000X1.500000*%
%TD*%
%TA.AperFunction,ComponentPad*%
%ADD19RoundRect,0.250000X-0.550000X0.550000X-0.550000X-0.550000X0.550000X-0.550000X0.550000X0.550000X0*%
%TD*%
%TA.AperFunction,ComponentPad*%
%ADD20R,0.850000X0.850000*%
%TD*%
%TA.AperFunction,ComponentPad*%
%ADD21C,0.850000*%
%TD*%
%TA.AperFunction,ComponentPad*%
%ADD22C,1.500000*%
%TD*%
%TA.AperFunction,ComponentPad*%
%ADD23RoundRect,0.250000X0.550000X-0.550000X0.550000X0.550000X-0.550000X0.550000X-0.550000X-0.550000X0*%
%TD*%
%TA.AperFunction,ComponentPad*%
%ADD24R,1.500000X1.500000*%
%TD*%
%TA.AperFunction,ComponentPad*%
%ADD25C,2.300000*%
%TD*%
%TA.AperFunction,ComponentPad*%
%ADD26R,2.000000X1.905000*%
%TD*%
%TA.AperFunction,ComponentPad*%
%ADD27O,2.000000X1.905000*%
%TD*%
%TA.AperFunction,ViaPad*%
%ADD28C,0.600000*%
%TD*%
%TA.AperFunction,Conductor*%
%ADD29C,0.200000*%
%TD*%
%TA.AperFunction,Conductor*%
%ADD30C,0.600000*%
%TD*%
%TA.AperFunction,Conductor*%
%ADD31C,1.000000*%
%TD*%
G04 APERTURE END LIST*
D10*
%TO.P,R12,1*%
%TO.N,Net-(D3-A)*%
X160950000Y-46810000D03*
%TO.P,R12,2*%
%TO.N,/VCC*%
X160950000Y-39190000D03*
%TD*%
%TO.P,C26,1*%
%TO.N,Net-(U3-BYPASS)*%
X135500000Y-108750000D03*
%TO.P,C26,2*%
%TO.N,GND*%
X135500000Y-106250000D03*
%TD*%
D11*
%TO.P,SW22,1,A*%
%TO.N,/CUT3*%
X87000000Y-40960000D03*
D12*
%TO.P,SW22,2,B*%
%TO.N,12V*%
X87000000Y-43500000D03*
%TD*%
D13*
%TO.P,C9,1*%
%TO.N,GND*%
X179182380Y-61000000D03*
D10*
%TO.P,C9,2*%
%TO.N,/N5V*%
X176682380Y-61000000D03*
%TD*%
D14*
%TO.P,C11,1*%
%TO.N,Net-(C11-Pad1)*%
X142000000Y-107500000D03*
D10*
%TO.P,C11,2*%
%TO.N,/CUT1*%
X144500000Y-107500000D03*
%TD*%
%TO.P,R11,1*%
%TO.N,Net-(D2-A)*%
X156900000Y-46810000D03*
%TO.P,R11,2*%
%TO.N,/VCC*%
X156900000Y-39190000D03*
%TD*%
%TO.P,C8,1*%
%TO.N,GND*%
X77000000Y-100500000D03*
%TO.P,C8,2*%
%TO.N,/XTAL2*%
X82000000Y-100500000D03*
%TD*%
D13*
%TO.P,U8,1,X4*%
%TO.N,unconnected-(U8-X4-Pad1)*%
X107500000Y-88540000D03*
D10*
%TO.P,U8,2,X6*%
%TO.N,unconnected-(U8-X6-Pad2)*%
X107500000Y-86000000D03*
%TO.P,U8,3,X*%
%TO.N,/LM2*%
X107500000Y-83460000D03*
%TO.P,U8,4,X7*%
%TO.N,unconnected-(U8-X7-Pad4)*%
X107500000Y-80920000D03*
%TO.P,U8,5,X5*%
%TO.N,unconnected-(U8-X5-Pad5)*%
X107500000Y-78380000D03*
%TO.P,U8,6,INH*%
%TO.N,GND*%
X107500000Y-75840000D03*
%TO.P,U8,7,VEE*%
%TO.N,/N5V*%
X107500000Y-73300000D03*
%TO.P,U8,8,VSS*%
%TO.N,GND*%
X107500000Y-70760000D03*
%TO.P,U8,9,C*%
%TO.N,/PIN3*%
X99880000Y-70760000D03*
%TO.P,U8,10,B*%
%TO.N,/PIN2*%
X99880000Y-73300000D03*
%TO.P,U8,11,A*%
%TO.N,/PIN1*%
X99880000Y-75840000D03*
%TO.P,U8,12,X3*%
%TO.N,SW4*%
X99880000Y-78380000D03*
%TO.P,U8,13,X0*%
%TO.N,unconnected-(U8-X0-Pad13)*%
X99880000Y-80920000D03*
%TO.P,U8,14,X1*%
%TO.N,SW1*%
X99880000Y-83460000D03*
%TO.P,U8,15,X2*%
%TO.N,SW3*%
X99880000Y-86000000D03*
%TO.P,U8,16,VDD*%
%TO.N,/VCC*%
X99880000Y-88540000D03*
%TD*%
%TO.P,R14,1*%
%TO.N,/VCC*%
X109310000Y-114000000D03*
%TO.P,R14,2*%
%TO.N,Net-(Q3-C)*%
X101690000Y-114000000D03*
%TD*%
D11*
%TO.P,LS1,1,1*%
%TO.N,GND*%
X190500000Y-74725000D03*
D12*
%TO.P,LS1,2,2*%
%TO.N,/CUT2*%
X190500000Y-77265000D03*
%TD*%
D15*
%TO.P,C13,1*%
%TO.N,/VCC*%
X102000000Y-52500000D03*
D16*
%TO.P,C13,2*%
%TO.N,GND*%
X109500000Y-52500000D03*
%TD*%
D13*
%TO.P,U6,1,NC*%
%TO.N,unconnected-(U6-NC-Pad1)*%
X94000000Y-105040000D03*
D10*
%TO.P,U6,2,CAP+*%
%TO.N,Net-(U6-CAP+)*%
X94000000Y-102500000D03*
%TO.P,U6,3,GND*%
%TO.N,GND*%
X94000000Y-99960000D03*
%TO.P,U6,4,CAP-*%
%TO.N,Net-(U6-CAP-)*%
X94000000Y-97420000D03*
%TO.P,U6,5,VOUT*%
%TO.N,/N5V*%
X86380000Y-97420000D03*
%TO.P,U6,6,LV*%
%TO.N,unconnected-(U6-LV-Pad6)*%
X86380000Y-99960000D03*
%TO.P,U6,7,OSC*%
%TO.N,unconnected-(U6-OSC-Pad7)*%
X86380000Y-102500000D03*
%TO.P,U6,8,V+*%
%TO.N,/VCC*%
X86380000Y-105040000D03*
%TD*%
D17*
%TO.P,Q3,1,E*%
%TO.N,GND*%
X86500000Y-113500000D03*
D18*
%TO.P,Q3,2,B*%
%TO.N,Net-(Q3-B)*%
X85230000Y-113500000D03*
%TO.P,Q3,3,C*%
%TO.N,Net-(Q3-C)*%
X83960000Y-113500000D03*
%TD*%
D11*
%TO.P,D3,1,K*%
%TO.N,/PIN22*%
X190000000Y-40725000D03*
D12*
%TO.P,D3,2,A*%
%TO.N,Net-(D3-A)*%
X190000000Y-43265000D03*
%TD*%
D19*
%TO.P,C16,1*%
%TO.N,/N5V*%
X100500000Y-104000000D03*
D10*
%TO.P,C16,2*%
%TO.N,GND*%
X100500000Y-106500000D03*
%TD*%
D11*
%TO.P,D2,1,K*%
%TO.N,/PIN21*%
X190000000Y-48500000D03*
D12*
%TO.P,D2,2,A*%
%TO.N,Net-(D2-A)*%
X190000000Y-51040000D03*
%TD*%
D10*
%TO.P,R7,1*%
%TO.N,/RST*%
X121190000Y-41000000D03*
%TO.P,R7,2*%
%TO.N,GND*%
X128810000Y-41000000D03*
%TD*%
%TO.P,R16,1*%
%TO.N,Net-(Q3-B)*%
X107000000Y-107310000D03*
%TO.P,R16,2*%
%TO.N,/TX*%
X107000000Y-99690000D03*
%TD*%
D20*
%TO.P,10K1,1*%
%TO.N,/SW2UF*%
X193000000Y-113875000D03*
D21*
%TO.P,10K1,2*%
%TO.N,Net-(10K1-Pad2)*%
X194000000Y-113875000D03*
%TD*%
D10*
%TO.P,C1,1*%
%TO.N,Net-(C1-Pad1)*%
X170500000Y-53000000D03*
%TO.P,C1,2*%
%TO.N,/SW2UF*%
X170500000Y-55500000D03*
%TD*%
%TO.P,C7,1*%
%TO.N,GND*%
X77000000Y-83500000D03*
%TO.P,C7,2*%
%TO.N,/XTAL1*%
X82000000Y-83500000D03*
%TD*%
D22*
%TO.P,11.0592MHz1,1,1*%
%TO.N,/XTAL2*%
X79500000Y-94880000D03*
%TO.P,11.0592MHz1,2,2*%
%TO.N,/XTAL1*%
X79500000Y-90000000D03*
%TD*%
D11*
%TO.P,U9,1,VCC*%
%TO.N,/VCC*%
X198000000Y-89380000D03*
D12*
%TO.P,U9,2,GND*%
%TO.N,GND*%
X198000000Y-91920000D03*
%TO.P,U9,3,SDA*%
%TO.N,/PIN23*%
X198000000Y-94460000D03*
%TO.P,U9,4,SCL*%
%TO.N,/PIN24*%
X198000000Y-97000000D03*
%TD*%
D14*
%TO.P,U2,1*%
%TO.N,Net-(C6-Pad1)*%
X155000000Y-53880000D03*
D10*
%TO.P,U2,2,-*%
%TO.N,Net-(U2A--)*%
X155000000Y-56420000D03*
%TO.P,U2,3,+*%
%TO.N,Net-(U2A-+)*%
X155000000Y-58960000D03*
%TO.P,U2,4,V-*%
%TO.N,/N5V*%
X155000000Y-61500000D03*
%TO.P,U2,5,+*%
%TO.N,GND*%
X162620000Y-61500000D03*
%TO.P,U2,6,-*%
%TO.N,Net-(U2B--)*%
X162620000Y-58960000D03*
%TO.P,U2,7*%
X162620000Y-56420000D03*
%TO.P,U2,8,V+*%
%TO.N,/VCC*%
X162620000Y-53880000D03*
%TD*%
%TO.P,R6,1*%
%TO.N,Net-(U2A--)*%
X155190000Y-71500000D03*
%TO.P,R6,2*%
%TO.N,Net-(C6-Pad1)*%
X162810000Y-71500000D03*
%TD*%
%TO.P,C2,1*%
%TO.N,/VCC*%
X170500000Y-62500000D03*
%TO.P,C2,2*%
%TO.N,GND*%
X170500000Y-60000000D03*
%TD*%
D13*
%TO.P,C3,1*%
%TO.N,/RST*%
X116205112Y-41000000D03*
D10*
%TO.P,C3,2*%
%TO.N,/VCC*%
X113705112Y-41000000D03*
%TD*%
%TO.P,C14,1*%
%TO.N,Net-(10K1-Pad2)*%
X113500000Y-111750000D03*
%TO.P,C14,2*%
%TO.N,Net-(MK2-+)*%
X113500000Y-109250000D03*
%TD*%
%TO.P,R9,1*%
%TO.N,Net-(C6-Pad2)*%
X163000000Y-86500000D03*
%TO.P,R9,2*%
%TO.N,SW2*%
X155380000Y-86500000D03*
%TD*%
%TO.P,C12,1*%
%TO.N,GND*%
X153750000Y-114000000D03*
%TO.P,C12,2*%
%TO.N,Net-(C12-Pad2)*%
X151250000Y-114000000D03*
%TD*%
D23*
%TO.P,C15,1*%
%TO.N,Net-(U6-CAP+)*%
X100500000Y-99205113D03*
D10*
%TO.P,C15,2*%
%TO.N,Net-(U6-CAP-)*%
X100500000Y-96705113D03*
%TD*%
%TO.P,R15,1*%
%TO.N,/VCC*%
X97310000Y-114000000D03*
%TO.P,R15,2*%
%TO.N,/RX*%
X89690000Y-114000000D03*
%TD*%
%TO.P,R1,1*%
%TO.N,GND*%
X155380000Y-76500000D03*
%TO.P,R1,2*%
%TO.N,Net-(C1-Pad1)*%
X163000000Y-76500000D03*
%TD*%
D11*
%TO.P,D4,1,K*%
%TO.N,GND*%
X198000000Y-80225000D03*
D12*
%TO.P,D4,2,A*%
%TO.N,Net-(D4-A)*%
X198000000Y-82765000D03*
%TD*%
D24*
%TO.P,J1,1*%
%TO.N,SW1*%
X83720000Y-72580000D03*
D22*
%TO.P,J1,2*%
%TO.N,SW2*%
X85500000Y-71564000D03*
%TO.P,J1,3*%
%TO.N,SW3*%
X83720000Y-70548000D03*
%TO.P,J1,4*%
%TO.N,SW4*%
X85500000Y-69532000D03*
%TO.P,J1,5*%
%TO.N,/BUS12*%
X83720000Y-68516000D03*
%TO.P,J1,6*%
%TO.N,/BUS22*%
X85500000Y-67500000D03*
%TO.P,J1,7*%
%TO.N,/CUT3*%
X83720000Y-66484000D03*
%TO.P,J1,8*%
%TO.N,GND*%
X85500000Y-65468000D03*
D25*
%TO.P,J1,SH*%
%TO.N,N/C*%
X84610000Y-77150000D03*
X84610000Y-60890000D03*
%TD*%
D14*
%TO.P,C4,1*%
%TO.N,/VCC*%
X168317621Y-69500000D03*
D10*
%TO.P,C4,2*%
%TO.N,GND*%
X170817621Y-69500000D03*
%TD*%
%TO.P,R5,1*%
%TO.N,Net-(MK2-+)*%
X118000000Y-114310000D03*
%TO.P,R5,2*%
%TO.N,/VCC*%
X118000000Y-106690000D03*
%TD*%
D14*
%TO.P,C6,1*%
%TO.N,Net-(C6-Pad1)*%
X168317621Y-80000000D03*
D10*
%TO.P,C6,2*%
%TO.N,Net-(C6-Pad2)*%
X170817621Y-80000000D03*
%TD*%
%TO.P,R4,1*%
%TO.N,Net-(C12-Pad2)*%
X148310000Y-114000000D03*
%TO.P,R4,2*%
%TO.N,Net-(C11-Pad1)*%
X140690000Y-114000000D03*
%TD*%
%TO.P,R3,1*%
%TO.N,GND*%
X155190000Y-81500000D03*
%TO.P,R3,2*%
%TO.N,Net-(U2A--)*%
X162810000Y-81500000D03*
%TD*%
%TO.P,C17,1*%
%TO.N,GND*%
X120500000Y-85000000D03*
%TO.P,C17,2*%
%TO.N,/VCC*%
X118000000Y-85000000D03*
%TD*%
%TO.P,R10,1*%
%TO.N,Net-(D1-A)*%
X152850000Y-46810000D03*
%TO.P,R10,2*%
%TO.N,/VCC*%
X152850000Y-39190000D03*
%TD*%
D11*
%TO.P,SW3,1,1*%
%TO.N,GND*%
X190500000Y-65500000D03*
D12*
%TO.P,SW3,2,2*%
%TO.N,/PIN5*%
X190500000Y-68040000D03*
%TD*%
D10*
%TO.P,R13,1*%
%TO.N,Net-(D4-A)*%
X165000000Y-46810000D03*
%TO.P,R13,2*%
%TO.N,/VCC*%
X165000000Y-39190000D03*
%TD*%
D11*
%TO.P,D1,1,K*%
%TO.N,/PIN28*%
X198000000Y-62460000D03*
D12*
%TO.P,D1,2,A*%
%TO.N,Net-(D1-A)*%
X198000000Y-65000000D03*
%TD*%
D20*
%TO.P,BZ1,1,+*%
%TO.N,/VCC*%
X186500000Y-113875000D03*
D21*
%TO.P,BZ1,2,-*%
%TO.N,/PIN8*%
X187500000Y-113875000D03*
%TD*%
D10*
%TO.P,R2,1*%
%TO.N,Net-(C1-Pad1)*%
X155190000Y-66500000D03*
%TO.P,R2,2*%
%TO.N,Net-(U2A-+)*%
X162810000Y-66500000D03*
%TD*%
D14*
%TO.P,U7,1,P1.0*%
%TO.N,/PIN1*%
X131000000Y-49875000D03*
D10*
%TO.P,U7,2,P1.1*%
%TO.N,/PIN2*%
X131000000Y-52415000D03*
%TO.P,U7,3,P1.2*%
%TO.N,/PIN3*%
X131000000Y-54955000D03*
%TO.P,U7,4,P1.3*%
%TO.N,/PIN4*%
X131000000Y-57495000D03*
%TO.P,U7,5,P1.4*%
%TO.N,/PIN5*%
X131000000Y-60035000D03*
%TO.P,U7,6,P1.5*%
%TO.N,/PIN6*%
X131000000Y-62575000D03*
%TO.P,U7,7,P1.6*%
%TO.N,unconnected-(U7-P1.6-Pad7)*%
X131000000Y-65115000D03*
%TO.P,U7,8,P1.7*%
%TO.N,/PIN8*%
X131000000Y-67655000D03*
%TO.P,U7,9,RST*%
%TO.N,/RST*%
X131000000Y-70195000D03*
%TO.P,U7,10,P3.0*%
%TO.N,/RX*%
X131000000Y-72735000D03*
%TO.P,U7,11,P3.1*%
%TO.N,/TX*%
X131000000Y-75275000D03*
%TO.P,U7,12,P3.2*%
%TO.N,unconnected-(U7-P3.2-Pad12)*%
X131000000Y-77815000D03*
%TO.P,U7,13,P3.3*%
%TO.N,unconnected-(U7-P3.3-Pad13)*%
X131000000Y-80355000D03*
%TO.P,U7,14,P3.4*%
%TO.N,unconnected-(U7-P3.4-Pad14)*%
X131000000Y-82895000D03*
%TO.P,U7,15,P3.5*%
%TO.N,unconnected-(U7-P3.5-Pad15)*%
X131000000Y-85435000D03*
%TO.P,U7,16,P3.6*%
%TO.N,unconnected-(U7-P3.6-Pad16)*%
X131000000Y-87975000D03*
%TO.P,U7,17,P3.7*%
%TO.N,unconnected-(U7-P3.7-Pad17)*%
X131000000Y-90515000D03*
%TO.P,U7,18,XTAL2*%
%TO.N,/XTAL2*%
X131000000Y-93055000D03*
%TO.P,U7,19,XTAL1*%
%TO.N,/XTAL1*%
X131000000Y-95595000D03*
%TO.P,U7,20,GND*%
%TO.N,GND*%
X131000000Y-98135000D03*
%TO.P,U7,21,P2.0*%
%TO.N,/PIN21*%
X146240000Y-98135000D03*
%TO.P,U7,22,P2.1*%
%TO.N,/PIN22*%
X146240000Y-95595000D03*
%TO.P,U7,23,P2.2*%
%TO.N,/PIN23*%
X146240000Y-93055000D03*
%TO.P,U7,24,P2.3*%
%TO.N,/PIN24*%
X146240000Y-90515000D03*
%TO.P,U7,25,P2.4*%
%TO.N,unconnected-(U7-P2.4-Pad25)*%
X146240000Y-87975000D03*
%TO.P,U7,26,P2.5*%
%TO.N,unconnected-(U7-P2.5-Pad26)*%
X146240000Y-85435000D03*
%TO.P,U7,27,P2.6*%
%TO.N,/PIN27*%
X146240000Y-82895000D03*
%TO.P,U7,28,P2.7*%
%TO.N,/PIN28*%
X146240000Y-80355000D03*
%TO.P,U7,29,~PSEN*%
%TO.N,unconnected-(U7-~PSEN-Pad29)*%
X146240000Y-77815000D03*
%TO.P,U7,30,ALE/~PROG*%
%TO.N,unconnected-(U7-ALE{slash}~PROG-Pad30)*%
X146240000Y-75275000D03*
%TO.P,U7,31,~EA/VPP*%
%TO.N,/VCC*%
X146240000Y-72735000D03*
%TO.P,U7,32,P0.7*%
%TO.N,unconnected-(U7-P0.7-Pad32)*%
X146240000Y-70195000D03*
%TO.P,U7,33,P0.6*%
%TO.N,unconnected-(U7-P0.6-Pad33)*%
X146240000Y-67655000D03*
%TO.P,U7,34,P0.5*%
%TO.N,unconnected-(U7-P0.5-Pad34)*%
X146240000Y-65115000D03*
%TO.P,U7,35,P0.4*%
%TO.N,unconnected-(U7-P0.4-Pad35)*%
X146240000Y-62575000D03*
%TO.P,U7,36,P0.3*%
%TO.N,unconnected-(U7-P0.3-Pad36)*%
X146240000Y-60035000D03*
%TO.P,U7,37,P0.2*%
%TO.N,unconnected-(U7-P0.2-Pad37)*%
X146240000Y-57495000D03*
%TO.P,U7,38,P0.1*%
%TO.N,unconnected-(U7-P0.1-Pad38)*%
X146240000Y-54955000D03*
%TO.P,U7,39,P0.0*%
%TO.N,unconnected-(U7-P0.0-Pad39)*%
X146240000Y-52415000D03*
%TO.P,U7,40,VCC*%
%TO.N,/VCC*%
X146240000Y-49875000D03*
%TD*%
D11*
%TO.P,SW1,1,1*%
%TO.N,GND*%
X190500000Y-83380000D03*
D12*
%TO.P,SW1,2,2*%
%TO.N,/PIN27*%
X190500000Y-85920000D03*
%TO.P,SW1,3,3*%
%TO.N,/CUT1*%
X190500000Y-88460000D03*
%TO.P,SW1,4,4*%
%TO.N,/CUT2*%
X190500000Y-91000000D03*
%TD*%
D11*
%TO.P,MK2,1,-*%
%TO.N,GND*%
X198000000Y-103000000D03*
D12*
%TO.P,MK2,2,+*%
%TO.N,Net-(MK2-+)*%
X198000000Y-105540000D03*
%TD*%
D26*
%TO.P,U5,1,IN*%
%TO.N,12V*%
X94730000Y-49960000D03*
D27*
%TO.P,U5,2,GND*%
%TO.N,GND*%
X94730000Y-52500000D03*
%TO.P,U5,3,OUT*%
%TO.N,/VCC*%
X94730000Y-55040000D03*
%TD*%
D13*
%TO.P,U1,1,RO*%
%TO.N,/RX*%
X123310000Y-81310000D03*
D10*
%TO.P,U1,2,~{RE}*%
%TO.N,Net-(Q3-C)*%
X123310000Y-78770000D03*
%TO.P,U1,3,DE*%
X123310000Y-76230000D03*
%TO.P,U1,4,DI*%
%TO.N,/TX*%
X123310000Y-73690000D03*
%TO.P,U1,5,GND*%
%TO.N,GND*%
X115690000Y-73690000D03*
%TO.P,U1,6,A*%
%TO.N,/BUS12*%
X115690000Y-76230000D03*
%TO.P,U1,7,B*%
%TO.N,/BUS22*%
X115690000Y-78770000D03*
%TO.P,U1,8,VCC*%
%TO.N,/VCC*%
X115690000Y-81310000D03*
%TD*%
%TO.P,C5,1*%
%TO.N,GND*%
X177500000Y-55500000D03*
%TO.P,C5,2*%
%TO.N,/N5V*%
X177500000Y-53000000D03*
%TD*%
%TO.P,R8,1*%
%TO.N,GND*%
X155380000Y-92000000D03*
%TO.P,R8,2*%
%TO.N,Net-(C6-Pad2)*%
X163000000Y-92000000D03*
%TD*%
D14*
%TO.P,U3,1,GAIN*%
%TO.N,unconnected-(U3-GAIN-Pad1)*%
X123190000Y-106690001D03*
D10*
%TO.P,U3,2,-*%
%TO.N,GND*%
X123190000Y-109230001D03*
%TO.P,U3,3,+*%
%TO.N,/LM2VC*%
X123190000Y-111770001D03*
%TO.P,U3,4,GND*%
%TO.N,GND*%
X123190000Y-114310001D03*
%TO.P,U3,5*%
%TO.N,Net-(C11-Pad1)*%
X130810000Y-114310001D03*
%TO.P,U3,6,V+*%
%TO.N,/VCC*%
X130810000Y-111770001D03*
%TO.P,U3,7,BYPASS*%
%TO.N,Net-(U3-BYPASS)*%
X130810000Y-109230001D03*
%TO.P,U3,8,GAIN*%
%TO.N,unconnected-(U3-GAIN-Pad8)*%
X130810000Y-106690001D03*
%TD*%
D11*
%TO.P,RV1,1,1*%
%TO.N,/LM2*%
X190500000Y-97500000D03*
D12*
%TO.P,RV1,2,2*%
%TO.N,/LM2VC*%
X190500000Y-100040000D03*
%TO.P,RV1,3,3*%
%TO.N,GND*%
X190500000Y-102580000D03*
%TD*%
D11*
%TO.P,SW4,1,1*%
%TO.N,GND*%
X190500000Y-57000000D03*
D12*
%TO.P,SW4,2,2*%
%TO.N,/PIN6*%
X190500000Y-59540000D03*
%TD*%
D10*
%TO.P,C10,1*%
%TO.N,/VCC*%
X95750000Y-43000000D03*
%TO.P,C10,2*%
%TO.N,GND*%
X93250000Y-43000000D03*
%TD*%
D11*
%TO.P,SW2,1,1*%
%TO.N,GND*%
X198000000Y-54225000D03*
D12*
%TO.P,SW2,2,2*%
%TO.N,/PIN4*%
X198000000Y-56765000D03*
%TD*%
D28*
%TO.N,/SW2UF*%
X180500000Y-102500000D03*
X179000000Y-96000000D03*
%TO.N,Net-(10K1-Pad2)*%
X115000000Y-116500000D03*
X194000000Y-116500000D03*
%TO.N,/XTAL2*%
X106000000Y-93000000D03*
X98500000Y-94500000D03*
%TO.N,/XTAL1*%
X104500000Y-94000000D03*
X101000000Y-94000000D03*
%TO.N,GND*%
X85000000Y-109000000D03*
X96500000Y-108050000D03*
X172000000Y-46000000D03*
X117500000Y-78500000D03*
X158500000Y-54500000D03*
X93000000Y-108500000D03*
X172400000Y-59000000D03*
X165000000Y-44600000D03*
X154500000Y-48500000D03*
X151600000Y-51000000D03*
X92000000Y-106500000D03*
%TO.N,/PIN8*%
X141500000Y-90500000D03*
X159000000Y-97500000D03*
X150100000Y-95500000D03*
X151600000Y-95500000D03*
X167000000Y-102100000D03*
X144500000Y-94000000D03*
%TO.N,/VCC*%
X115000000Y-48000000D03*
X90500000Y-88500000D03*
X194500000Y-80500000D03*
X93000000Y-110000000D03*
X185000000Y-105500000D03*
X181500000Y-110000000D03*
X166100000Y-58500000D03*
X194000000Y-106000000D03*
X144000000Y-46000000D03*
X195000000Y-99500000D03*
X88000000Y-104500000D03*
X107000000Y-42500000D03*
X124000000Y-47500000D03*
X202000000Y-99500000D03*
X121000000Y-99000000D03*
X116500000Y-91500000D03*
X136500000Y-58500000D03*
X183000000Y-111500000D03*
%TO.N,/N5V*%
X163500000Y-74500000D03*
X153500000Y-77500000D03*
X165000000Y-76000000D03*
X149500000Y-99000000D03*
X175000000Y-52500000D03*
X172500000Y-51000000D03*
%TO.N,Net-(C6-Pad1)*%
X158000000Y-66000000D03*
%TO.N,/CUT1*%
X148500000Y-107500000D03*
X181000000Y-104000000D03*
X179000000Y-106000000D03*
X186000000Y-99000000D03*
%TO.N,Net-(MK2-+)*%
X120000000Y-108500000D03*
X195500000Y-107500000D03*
%TO.N,Net-(D1-A)*%
X187500000Y-53000000D03*
X183500000Y-45500000D03*
%TO.N,Net-(D3-A)*%
X186000000Y-48500000D03*
%TO.N,/BUS12*%
X104000000Y-92000000D03*
X91500000Y-87000000D03*
%TO.N,SW2*%
X88000000Y-71500000D03*
X97000000Y-64000000D03*
X89000000Y-66000000D03*
X140500000Y-43000000D03*
%TO.N,Net-(U2A-+)*%
X161000000Y-66500000D03*
%TO.N,/PIN28*%
X154000000Y-41000000D03*
X169000000Y-41000000D03*
X163000000Y-41000000D03*
X141500000Y-80000000D03*
X139500000Y-45000000D03*
X141500000Y-49500000D03*
%TO.N,/PIN21*%
X186000000Y-51500000D03*
X142500000Y-48000000D03*
X146500000Y-43000000D03*
X181000000Y-43000000D03*
X187500000Y-50500000D03*
%TO.N,/PIN22*%
X150500000Y-52500000D03*
X143500000Y-49500000D03*
%TO.N,/LM2*%
X150500000Y-100000000D03*
%TO.N,/LM2VC*%
X125500000Y-111500000D03*
X130500000Y-103500000D03*
%TO.N,/PIN4*%
X134500000Y-44500000D03*
X134500000Y-42000000D03*
X159000000Y-42000000D03*
X195500000Y-47500000D03*
X192500000Y-38500000D03*
%TO.N,/PIN5*%
X175500000Y-66500000D03*
X158000000Y-51500000D03*
X140500000Y-57000000D03*
X161000000Y-52000000D03*
X149600000Y-55000000D03*
X165000000Y-53000000D03*
X182000000Y-67500000D03*
X166100000Y-55000000D03*
%TO.N,/PIN6*%
X140500000Y-66500000D03*
X185500000Y-56000000D03*
X151900000Y-65500000D03*
X166100000Y-62000000D03*
X168000000Y-62000000D03*
X149600000Y-66000000D03*
%TO.N,/PIN3*%
X120500000Y-65500000D03*
X117500000Y-66500000D03*
X100000000Y-69500000D03*
X103000000Y-66500000D03*
%TO.N,/PIN23*%
X159000000Y-95100000D03*
X177000000Y-95000000D03*
X150400000Y-94000000D03*
X196500000Y-94500000D03*
%TO.N,/PIN2*%
X119600000Y-63000000D03*
X108500000Y-65900000D03*
X106000000Y-68500000D03*
X118000000Y-63500000D03*
%TO.N,/PIN24*%
X187000000Y-93500000D03*
X152000000Y-93000000D03*
X150400000Y-92500000D03*
X178000000Y-93500000D03*
%TO.N,/PIN1*%
X120000000Y-60500000D03*
X97500000Y-68500000D03*
X98000000Y-66900000D03*
X117000000Y-61500000D03*
%TO.N,Net-(Q3-C)*%
X96000000Y-112000000D03*
X123310000Y-77500000D03*
X111000000Y-102500000D03*
X121000000Y-102500000D03*
X113500000Y-102500000D03*
X122500000Y-100500000D03*
X116500000Y-96500000D03*
X112000000Y-97000000D03*
%TO.N,/RX*%
X120500000Y-81310000D03*
X114000000Y-94500000D03*
X110500000Y-94500000D03*
%TO.N,/TX*%
X119000000Y-99000000D03*
X120000000Y-77000000D03*
X117500000Y-94500000D03*
X123500000Y-94000000D03*
X123500000Y-89500000D03*
%TD*%
D29*
%TO.N,/SW2UF*%
X172500000Y-55500000D02*
X170500000Y-55500000D01*
X184500000Y-63500000D02*
X184500000Y-50500000D01*
X184000000Y-102500000D02*
X180500000Y-102500000D01*
X173500000Y-54500000D02*
X172500000Y-55500000D01*
X174500000Y-50500000D02*
X173500000Y-51500000D01*
X184500000Y-50500000D02*
X174500000Y-50500000D01*
X190500000Y-112500000D02*
X190500000Y-109000000D01*
X179000000Y-96000000D02*
X179000000Y-69000000D01*
X191875000Y-113875000D02*
X190500000Y-112500000D01*
X193000000Y-113875000D02*
X191875000Y-113875000D01*
X179000000Y-69000000D02*
X184500000Y-63500000D01*
X186000000Y-104500000D02*
X184000000Y-102500000D01*
X173500000Y-51500000D02*
X173500000Y-54500000D01*
X190500000Y-109000000D02*
X186000000Y-104500000D01*
%TO.N,Net-(10K1-Pad2)*%
X113500000Y-115000000D02*
X115000000Y-116500000D01*
X113500000Y-111750000D02*
X113500000Y-115000000D01*
X194000000Y-116500000D02*
X194000000Y-113875000D01*
%TO.N,/XTAL2*%
X106000000Y-93000000D02*
X107500000Y-93000000D01*
X79500000Y-94880000D02*
X82000000Y-97380000D01*
X107500000Y-93000000D02*
X107555000Y-93055000D01*
X82620000Y-97380000D02*
X84500000Y-95500000D01*
X84500000Y-95500000D02*
X97500000Y-95500000D01*
X107555000Y-93055000D02*
X131000000Y-93055000D01*
X97500000Y-95500000D02*
X98500000Y-94500000D01*
X82000000Y-97380000D02*
X82000000Y-100500000D01*
X82000000Y-97380000D02*
X82620000Y-97380000D01*
%TO.N,/XTAL1*%
X105500000Y-94000000D02*
X107095000Y-95595000D01*
X104500000Y-94000000D02*
X105500000Y-94000000D01*
X98500000Y-91500000D02*
X101000000Y-94000000D01*
X107095000Y-95595000D02*
X131000000Y-95595000D01*
X82000000Y-87500000D02*
X87000000Y-87500000D01*
X87000000Y-87500000D02*
X91000000Y-91500000D01*
X82000000Y-87500000D02*
X79500000Y-90000000D01*
X91000000Y-91500000D02*
X98500000Y-91500000D01*
X82000000Y-83500000D02*
X82000000Y-87500000D01*
%TO.N,GND*%
X85500000Y-108500000D02*
X85000000Y-109000000D01*
X173500000Y-66817621D02*
X173500000Y-66000000D01*
X117500000Y-82000000D02*
X117500000Y-79500000D01*
X120500000Y-85000000D02*
X117500000Y-82000000D01*
X171500000Y-59000000D02*
X172400000Y-59000000D01*
X154100000Y-48500000D02*
X154500000Y-48500000D01*
X93000000Y-108500000D02*
X85500000Y-108500000D01*
X165000000Y-44600000D02*
X170600000Y-44600000D01*
X117500000Y-79500000D02*
X117500000Y-78500000D01*
X98950000Y-108050000D02*
X96500000Y-108050000D01*
X170817621Y-69500000D02*
X173500000Y-66817621D01*
X170600000Y-44600000D02*
X172000000Y-46000000D01*
X92540000Y-99960000D02*
X91500000Y-101000000D01*
X94000000Y-99960000D02*
X92540000Y-99960000D01*
X158500000Y-57380000D02*
X158500000Y-54500000D01*
X151600000Y-51000000D02*
X154100000Y-48500000D01*
X162620000Y-61500000D02*
X158500000Y-57380000D01*
X172500000Y-65000000D02*
X172500000Y-60000000D01*
X170500000Y-60000000D02*
X171500000Y-59000000D01*
X92000000Y-101500000D02*
X92000000Y-106500000D01*
X91500000Y-101000000D02*
X92000000Y-101500000D01*
X100500000Y-106500000D02*
X98950000Y-108050000D01*
X173500000Y-66000000D02*
X172500000Y-65000000D01*
X172500000Y-60000000D02*
X170500000Y-60000000D01*
%TO.N,/PIN8*%
X136000000Y-72655000D02*
X131000000Y-67655000D01*
X141500000Y-89500000D02*
X139500000Y-87500000D01*
X189500000Y-110000000D02*
X187500000Y-112000000D01*
X148500000Y-95500000D02*
X147156000Y-94156000D01*
X139500000Y-87500000D02*
X139500000Y-80500000D01*
X147156000Y-94156000D02*
X144656000Y-94156000D01*
X167000000Y-102100000D02*
X178775000Y-113875000D01*
X141500000Y-90500000D02*
X141500000Y-89500000D01*
X139500000Y-80500000D02*
X136000000Y-77000000D01*
X157000000Y-95500000D02*
X151600000Y-95500000D01*
X189000000Y-109500000D02*
X189500000Y-110000000D01*
X187500000Y-112000000D02*
X187500000Y-113875000D01*
X150100000Y-95500000D02*
X148500000Y-95500000D01*
X159000000Y-97500000D02*
X157000000Y-95500000D01*
X183150000Y-109500000D02*
X189000000Y-109500000D01*
X136000000Y-77000000D02*
X136000000Y-72655000D01*
X144656000Y-94156000D02*
X144500000Y-94000000D01*
X178775000Y-113875000D02*
X183150000Y-109500000D01*
%TO.N,Net-(C1-Pad1)*%
X166000000Y-63500000D02*
X164000000Y-63500000D01*
X165500000Y-54500000D02*
X165500000Y-63000000D01*
X170500000Y-53000000D02*
X167000000Y-53000000D01*
X156000000Y-65690000D02*
X155190000Y-66500000D01*
X163500000Y-64000000D02*
X156000000Y-64000000D01*
X165000000Y-66000000D02*
X165000000Y-74500000D01*
X165000000Y-74500000D02*
X163000000Y-76500000D01*
X165500000Y-63000000D02*
X166000000Y-63500000D01*
X156000000Y-64000000D02*
X156000000Y-65690000D01*
X167000000Y-53000000D02*
X165500000Y-54500000D01*
X166000000Y-65000000D02*
X165000000Y-66000000D01*
X164000000Y-63500000D02*
X163500000Y-64000000D01*
X166000000Y-63500000D02*
X166000000Y-65000000D01*
D30*
%TO.N,/VCC*%
X121000000Y-99000000D02*
X122500000Y-99000000D01*
X107000000Y-42500000D02*
X105500000Y-41000000D01*
X138000000Y-46000000D02*
X136500000Y-47500000D01*
X185375000Y-113875000D02*
X183000000Y-111500000D01*
X166500000Y-58500000D02*
X166100000Y-58500000D01*
X194000000Y-106000000D02*
X194000000Y-100500000D01*
X142000000Y-46000000D02*
X144000000Y-46000000D01*
X95750000Y-43000000D02*
X96500000Y-43000000D01*
X113310000Y-106690000D02*
X121000000Y-99000000D01*
X186500000Y-113875000D02*
X185375000Y-113875000D01*
X93000000Y-110000000D02*
X93500000Y-110500000D01*
X101460000Y-55040000D02*
X102000000Y-54500000D01*
X96500000Y-43000000D02*
X98500000Y-41000000D01*
X110810000Y-106690000D02*
X112500000Y-106690000D01*
X122500000Y-99000000D02*
X126500000Y-103000000D01*
X138000000Y-46000000D02*
X142365000Y-46000000D01*
X142365000Y-46000000D02*
X146240000Y-49875000D01*
X124000000Y-47500000D02*
X126000000Y-47500000D01*
X93500000Y-110500000D02*
X97500000Y-110500000D01*
X115690000Y-90690000D02*
X116500000Y-91500000D01*
X102000000Y-54500000D02*
X102000000Y-52500000D01*
X198000000Y-89380000D02*
X196380000Y-89380000D01*
X194000000Y-100500000D02*
X195000000Y-99500000D01*
X115690000Y-85000000D02*
X115690000Y-90690000D01*
X98500000Y-41000000D02*
X105500000Y-41000000D01*
X196380000Y-89380000D02*
X194500000Y-87500000D01*
X110500000Y-43500000D02*
X115000000Y-48000000D01*
X109310000Y-114000000D02*
X109310000Y-112810000D01*
X110500000Y-41000000D02*
X113705112Y-41000000D01*
X102000000Y-52500000D02*
X102000000Y-49250000D01*
X97310000Y-114000000D02*
X97310000Y-110690000D01*
X168317621Y-64682379D02*
X170500000Y-62500000D01*
X112500000Y-106690000D02*
X113310000Y-106690000D01*
X99880000Y-88540000D02*
X90540000Y-88540000D01*
X126500000Y-103000000D02*
X126500000Y-109500000D01*
X168317621Y-69500000D02*
X168317621Y-64682379D01*
X94730000Y-55040000D02*
X101460000Y-55040000D01*
X170500000Y-62500000D02*
X166500000Y-58500000D01*
X194500000Y-87500000D02*
X194500000Y-80500000D01*
X105500000Y-41000000D02*
X110500000Y-41000000D01*
X152850000Y-39190000D02*
X165000000Y-39190000D01*
X97310000Y-110690000D02*
X97500000Y-110500000D01*
X86380000Y-105040000D02*
X87460000Y-105040000D01*
X115690000Y-81310000D02*
X115690000Y-85000000D01*
X142365000Y-46000000D02*
X142000000Y-46000000D01*
X112500000Y-106690000D02*
X118000000Y-106690000D01*
X127500000Y-46000000D02*
X138000000Y-46000000D01*
X181500000Y-110000000D02*
X181500000Y-109000000D01*
X118000000Y-85000000D02*
X115690000Y-85000000D01*
X136500000Y-47500000D02*
X136500000Y-58500000D01*
X202000000Y-99500000D02*
X202000000Y-93380000D01*
X126000000Y-47500000D02*
X127500000Y-46000000D01*
X97500000Y-110500000D02*
X107000000Y-110500000D01*
X87460000Y-105040000D02*
X88000000Y-104500000D01*
X128770001Y-111770001D02*
X130810000Y-111770001D01*
X126500000Y-109500000D02*
X128770001Y-111770001D01*
X107000000Y-110500000D02*
X110810000Y-106690000D01*
X109310000Y-112810000D02*
X107000000Y-110500000D01*
X202000000Y-93380000D02*
X198000000Y-89380000D01*
X110500000Y-41000000D02*
X110500000Y-43500000D01*
X102000000Y-49250000D02*
X95750000Y-43000000D01*
X181500000Y-109000000D02*
X185000000Y-105500000D01*
X90540000Y-88540000D02*
X90500000Y-88500000D01*
D29*
%TO.N,/RST*%
X121190000Y-41000000D02*
X119000000Y-41000000D01*
X119000000Y-41000000D02*
X119000000Y-70000000D01*
X116205112Y-41000000D02*
X119000000Y-41000000D01*
X128695000Y-70195000D02*
X131000000Y-70195000D01*
X128500000Y-70000000D02*
X128695000Y-70195000D01*
X119000000Y-70000000D02*
X128500000Y-70000000D01*
%TO.N,/N5V*%
X90500000Y-106000000D02*
X92000000Y-107500000D01*
X153500000Y-63500000D02*
X153500000Y-69500000D01*
X175500000Y-53000000D02*
X177500000Y-53000000D01*
X105000000Y-100500000D02*
X105000000Y-97000000D01*
X155000000Y-61500000D02*
X153500000Y-63000000D01*
X158500000Y-69500000D02*
X163500000Y-74500000D01*
X100500000Y-101500000D02*
X104000000Y-101500000D01*
X160500000Y-51000000D02*
X157000000Y-54500000D01*
X165000000Y-76000000D02*
X166500000Y-74500000D01*
X175500000Y-59817620D02*
X177817620Y-57500000D01*
X175500000Y-53000000D02*
X175000000Y-52500000D01*
X95000000Y-107500000D02*
X96500000Y-109000000D01*
X98500000Y-103500000D02*
X100500000Y-101500000D01*
X175500000Y-59817620D02*
X176682380Y-61000000D01*
X105000000Y-97000000D02*
X105000000Y-96000000D01*
X177817620Y-57500000D02*
X183500000Y-57500000D01*
X90500000Y-100000000D02*
X90500000Y-106000000D01*
X157000000Y-54500000D02*
X157000000Y-63000000D01*
X183500000Y-62000000D02*
X183500000Y-57500000D01*
X103000000Y-108500000D02*
X103000000Y-106500000D01*
X104000000Y-101500000D02*
X105000000Y-100500000D01*
X102500000Y-93500000D02*
X102500000Y-78300000D01*
X92000000Y-107500000D02*
X95000000Y-107500000D01*
X87920000Y-97420000D02*
X90500000Y-100000000D01*
X124000000Y-98000000D02*
X106000000Y-98000000D01*
X102500000Y-78300000D02*
X107500000Y-73300000D01*
X102500000Y-109000000D02*
X103000000Y-108500000D01*
X153500000Y-69500000D02*
X158500000Y-69500000D01*
X96500000Y-109000000D02*
X102500000Y-109000000D01*
X97000000Y-107500000D02*
X98500000Y-106000000D01*
X148000000Y-100500000D02*
X126500000Y-100500000D01*
X166500000Y-74500000D02*
X171000000Y-74500000D01*
X103000000Y-106500000D02*
X100500000Y-104000000D01*
X149500000Y-99000000D02*
X148000000Y-100500000D01*
X153500000Y-69500000D02*
X153500000Y-77500000D01*
X153500000Y-63000000D02*
X153500000Y-63500000D01*
X106000000Y-98000000D02*
X105000000Y-97000000D01*
X105000000Y-96000000D02*
X102500000Y-93500000D01*
X126500000Y-100500000D02*
X124000000Y-98000000D01*
X156500000Y-63500000D02*
X153500000Y-63500000D01*
X172500000Y-51000000D02*
X160500000Y-51000000D01*
X171000000Y-74500000D02*
X183500000Y-62000000D01*
X157000000Y-63000000D02*
X156500000Y-63500000D01*
X86380000Y-97420000D02*
X87920000Y-97420000D01*
X95000000Y-107500000D02*
X97000000Y-107500000D01*
X98500000Y-106000000D02*
X98500000Y-103500000D01*
%TO.N,Net-(C6-Pad2)*%
X164317621Y-86500000D02*
X166817621Y-84000000D01*
X166817621Y-84000000D02*
X166817621Y-88182379D01*
X163000000Y-86500000D02*
X164317621Y-86500000D01*
X170817621Y-80000000D02*
X166817621Y-84000000D01*
X166817621Y-88182379D02*
X163000000Y-92000000D01*
%TO.N,Net-(C6-Pad1)*%
X162810000Y-69310000D02*
X162500000Y-69000000D01*
X158500000Y-66500000D02*
X158000000Y-66000000D01*
X162500000Y-69000000D02*
X162000000Y-68500000D01*
X158500000Y-68500000D02*
X158500000Y-66500000D01*
X162810000Y-71500000D02*
X162810000Y-69310000D01*
X162000000Y-68500000D02*
X158500000Y-68500000D01*
%TO.N,Net-(C11-Pad1)*%
X133000000Y-115500000D02*
X133000000Y-114500000D01*
X131120001Y-114000000D02*
X130810000Y-114310001D01*
X140690000Y-114000000D02*
X137500000Y-114000000D01*
X133000000Y-114500000D02*
X132500000Y-114000000D01*
X136000000Y-115500000D02*
X133000000Y-115500000D01*
X137500000Y-114000000D02*
X136000000Y-115500000D01*
X142000000Y-107500000D02*
X135500000Y-114000000D01*
X135500000Y-114000000D02*
X132500000Y-114000000D01*
X132500000Y-114000000D02*
X131120001Y-114000000D01*
%TO.N,/CUT1*%
X179000000Y-106000000D02*
X181000000Y-104000000D01*
X186000000Y-99000000D02*
X186000000Y-91000000D01*
X188540000Y-88460000D02*
X188000000Y-89000000D01*
X188000000Y-89000000D02*
X186000000Y-91000000D01*
X144500000Y-107500000D02*
X148500000Y-107500000D01*
X190500000Y-88460000D02*
X188540000Y-88460000D01*
%TO.N,Net-(C12-Pad2)*%
X151250000Y-114000000D02*
X148310000Y-114000000D01*
%TO.N,Net-(MK2-+)*%
X198000000Y-105540000D02*
X196040000Y-107500000D01*
X119000000Y-109500000D02*
X118000000Y-109500000D01*
X118000000Y-109500000D02*
X118000000Y-114310000D01*
X117750000Y-109250000D02*
X118000000Y-109500000D01*
X196040000Y-107500000D02*
X195500000Y-107500000D01*
X120000000Y-108500000D02*
X119000000Y-109500000D01*
X113500000Y-109250000D02*
X117750000Y-109250000D01*
%TO.N,Net-(U6-CAP+)*%
X97205113Y-102500000D02*
X100500000Y-99205113D01*
X94000000Y-102500000D02*
X97205113Y-102500000D01*
%TO.N,Net-(U6-CAP-)*%
X94000000Y-97420000D02*
X99785113Y-97420000D01*
X99785113Y-97420000D02*
X100500000Y-96705113D01*
%TO.N,Net-(U3-BYPASS)*%
X135019999Y-109230001D02*
X135500000Y-108750000D01*
X130810000Y-109230001D02*
X135019999Y-109230001D01*
%TO.N,Net-(D1-A)*%
X195500000Y-65000000D02*
X198000000Y-65000000D01*
X187500000Y-53000000D02*
X187500000Y-53500000D01*
X152850000Y-46810000D02*
X153981370Y-46810000D01*
X188000000Y-54000000D02*
X188500000Y-53500000D01*
X194500000Y-64500000D02*
X195000000Y-64500000D01*
X194500000Y-54500000D02*
X194500000Y-64500000D01*
X195000000Y-64500000D02*
X195500000Y-65000000D01*
X182000000Y-44000000D02*
X183500000Y-45500000D01*
X177000000Y-44000000D02*
X182000000Y-44000000D01*
X187500000Y-53500000D02*
X188000000Y-54000000D01*
X188500000Y-53500000D02*
X193500000Y-53500000D01*
X156791370Y-44000000D02*
X177000000Y-44000000D01*
X153981370Y-46810000D02*
X156791370Y-44000000D01*
X193500000Y-53500000D02*
X194500000Y-54500000D01*
%TO.N,Net-(D2-A)*%
X188460000Y-49500000D02*
X190000000Y-51040000D01*
X158500000Y-48410000D02*
X158500000Y-49500000D01*
X156900000Y-46810000D02*
X158500000Y-48410000D01*
X158500000Y-49500000D02*
X188460000Y-49500000D01*
%TO.N,Net-(D3-A)*%
X160950000Y-46810000D02*
X162640000Y-48500000D01*
X162640000Y-48500000D02*
X186000000Y-48500000D01*
%TO.N,Net-(D4-A)*%
X186500000Y-46000000D02*
X203000000Y-46000000D01*
X165000000Y-46810000D02*
X185690000Y-46810000D01*
X185690000Y-46810000D02*
X186500000Y-46000000D01*
X203500000Y-77265000D02*
X198000000Y-82765000D01*
X203000000Y-46000000D02*
X203500000Y-46500000D01*
X203500000Y-46500000D02*
X203500000Y-77265000D01*
%TO.N,/BUS12*%
X83720000Y-68516000D02*
X82484000Y-68516000D01*
X110000000Y-92000000D02*
X111500000Y-90500000D01*
X82484000Y-68516000D02*
X76000000Y-75000000D01*
X76000000Y-75000000D02*
X88000000Y-87000000D01*
X88000000Y-87000000D02*
X91500000Y-87000000D01*
X104000000Y-92000000D02*
X110000000Y-92000000D01*
X111500000Y-80420000D02*
X115690000Y-76230000D01*
X111500000Y-90500000D02*
X111500000Y-80420000D01*
%TO.N,SW2*%
X149000000Y-47000000D02*
X145000000Y-43000000D01*
X149000000Y-58500000D02*
X149000000Y-47000000D01*
X95000000Y-66000000D02*
X89000000Y-66000000D01*
X86936000Y-71564000D02*
X85500000Y-71564000D01*
X88000000Y-71500000D02*
X87000000Y-71500000D01*
X145000000Y-43000000D02*
X140500000Y-43000000D01*
X87000000Y-71500000D02*
X86936000Y-71564000D01*
X150000000Y-82500000D02*
X150000000Y-69000000D01*
X149000000Y-68000000D02*
X149000000Y-58500000D01*
X150000000Y-69000000D02*
X149000000Y-68000000D01*
X154000000Y-86500000D02*
X150000000Y-82500000D01*
X155380000Y-86500000D02*
X154000000Y-86500000D01*
X97000000Y-64000000D02*
X95000000Y-66000000D01*
%TO.N,/BUS22*%
X118500000Y-75960000D02*
X118500000Y-71500000D01*
X118500000Y-71500000D02*
X114500000Y-67500000D01*
X115690000Y-78770000D02*
X118500000Y-75960000D01*
X114500000Y-67500000D02*
X85500000Y-67500000D01*
%TO.N,SW1*%
X94600000Y-83460000D02*
X99880000Y-83460000D01*
X83720000Y-72580000D02*
X94600000Y-83460000D01*
%TO.N,SW3*%
X81952000Y-70548000D02*
X77500000Y-75000000D01*
X83720000Y-70548000D02*
X81952000Y-70548000D01*
X77500000Y-75000000D02*
X88500000Y-86000000D01*
X88500000Y-86000000D02*
X99880000Y-86000000D01*
D31*
%TO.N,12V*%
X91000000Y-49500000D02*
X91460000Y-49960000D01*
X91000000Y-47500000D02*
X87000000Y-43500000D01*
X91000000Y-49500000D02*
X91000000Y-47500000D01*
X91460000Y-49960000D02*
X94730000Y-49960000D01*
D29*
%TO.N,SW4*%
X85500000Y-69532000D02*
X91032000Y-69532000D01*
X91032000Y-69532000D02*
X99880000Y-78380000D01*
%TO.N,/CUT2*%
X190500000Y-77265000D02*
X193000000Y-79765000D01*
X193000000Y-88500000D02*
X190500000Y-91000000D01*
X193000000Y-79765000D02*
X193000000Y-88500000D01*
%TO.N,Net-(U2A-+)*%
X162810000Y-66500000D02*
X161000000Y-66500000D01*
%TO.N,Net-(U2A--)*%
X156500000Y-79000000D02*
X152500000Y-79000000D01*
X153080000Y-56420000D02*
X155000000Y-56420000D01*
X159000000Y-76500000D02*
X155190000Y-72690000D01*
X152500000Y-79000000D02*
X152500000Y-57000000D01*
X162810000Y-81500000D02*
X162810000Y-80310000D01*
X162810000Y-80310000D02*
X159000000Y-76500000D01*
X159000000Y-76500000D02*
X156500000Y-79000000D01*
X152500000Y-57000000D02*
X153080000Y-56420000D01*
X155190000Y-72690000D02*
X155190000Y-71500000D01*
%TO.N,/PIN28*%
X141310000Y-39190000D02*
X139000000Y-41500000D01*
X139000000Y-41500000D02*
X139000000Y-44500000D01*
X141310000Y-39190000D02*
X143120000Y-41000000D01*
X143120000Y-41000000D02*
X154000000Y-41000000D01*
X141500000Y-49500000D02*
X141500000Y-80000000D01*
X163000000Y-41000000D02*
X169000000Y-41000000D01*
X139000000Y-44500000D02*
X139500000Y-45000000D01*
%TO.N,/PIN21*%
X186000000Y-51500000D02*
X186500000Y-51500000D01*
X171000000Y-43000000D02*
X181000000Y-43000000D01*
X144605000Y-96500000D02*
X146240000Y-98135000D01*
X142500000Y-48000000D02*
X142500000Y-95500000D01*
X143500000Y-96500000D02*
X144605000Y-96500000D01*
X146500000Y-43000000D02*
X171000000Y-43000000D01*
X186500000Y-51500000D02*
X187500000Y-50500000D01*
X142500000Y-95500000D02*
X143500000Y-96500000D01*
%TO.N,/PIN22*%
X144095000Y-95595000D02*
X146240000Y-95595000D01*
X174000000Y-43500000D02*
X174051000Y-43551000D01*
X187174000Y-43551000D02*
X190000000Y-40725000D01*
X143500000Y-95000000D02*
X144095000Y-95595000D01*
X156140000Y-44000000D02*
X156640000Y-43500000D01*
X143500000Y-49500000D02*
X143500000Y-95000000D01*
X174051000Y-43551000D02*
X187174000Y-43551000D01*
X151000000Y-44000000D02*
X156140000Y-44000000D01*
X150500000Y-52500000D02*
X151000000Y-52000000D01*
X151000000Y-52000000D02*
X151000000Y-44000000D01*
X156640000Y-43500000D02*
X174000000Y-43500000D01*
%TO.N,/LM2*%
X190500000Y-97500000D02*
X188000000Y-100000000D01*
X180000000Y-100000000D02*
X150500000Y-100000000D01*
X188000000Y-100000000D02*
X180000000Y-100000000D01*
%TO.N,/LM2VC*%
X189040000Y-101500000D02*
X190500000Y-100040000D01*
X123190000Y-111770001D02*
X125229999Y-111770001D01*
X130500000Y-103500000D02*
X132500000Y-101500000D01*
X125229999Y-111770001D02*
X125500000Y-111500000D01*
X132500000Y-101500000D02*
X189040000Y-101500000D01*
%TO.N,/PIN27*%
X184500000Y-98500000D02*
X151000000Y-98500000D01*
X151000000Y-87655000D02*
X146240000Y-82895000D01*
X184500000Y-91000000D02*
X184500000Y-98500000D01*
X188920000Y-87500000D02*
X188000000Y-87500000D01*
X190500000Y-85920000D02*
X188920000Y-87500000D01*
X188000000Y-87500000D02*
X184500000Y-91000000D01*
X151000000Y-98500000D02*
X151000000Y-87655000D01*
%TO.N,/PIN4*%
X195500000Y-54265000D02*
X195500000Y-47500000D01*
X169500000Y-42000000D02*
X159500000Y-42000000D01*
X173000000Y-38500000D02*
X169500000Y-42000000D01*
X159500000Y-42000000D02*
X159494265Y-41994265D01*
X159494265Y-41994265D02*
X159005735Y-41994265D01*
X192500000Y-38500000D02*
X173000000Y-38500000D01*
X159005735Y-41994265D02*
X159000000Y-42000000D01*
X198000000Y-56765000D02*
X195500000Y-54265000D01*
X134500000Y-42000000D02*
X134500000Y-44500000D01*
%TO.N,/PIN5*%
X164000000Y-52000000D02*
X161000000Y-52000000D01*
X190500000Y-68040000D02*
X182540000Y-68040000D01*
X173000000Y-58000000D02*
X169100000Y-58000000D01*
X149600000Y-54900000D02*
X149600000Y-55000000D01*
X158000000Y-51500000D02*
X153000000Y-51500000D01*
X169100000Y-58000000D02*
X166100000Y-55000000D01*
X137465000Y-60035000D02*
X131000000Y-60035000D01*
X140500000Y-57000000D02*
X137465000Y-60035000D01*
X153000000Y-51500000D02*
X149600000Y-54900000D01*
X173000000Y-64000000D02*
X173000000Y-58000000D01*
X165000000Y-53000000D02*
X164000000Y-52000000D01*
X182540000Y-68040000D02*
X182000000Y-67500000D01*
X175500000Y-66500000D02*
X173000000Y-64000000D01*
%TO.N,/PIN6*%
X186960000Y-56000000D02*
X185500000Y-56000000D01*
X150100000Y-65500000D02*
X149600000Y-66000000D01*
X168000000Y-62000000D02*
X166100000Y-62000000D01*
X190500000Y-59540000D02*
X186960000Y-56000000D01*
X136075000Y-62575000D02*
X131000000Y-62575000D01*
X140000000Y-66500000D02*
X136075000Y-62575000D01*
X151900000Y-65500000D02*
X150100000Y-65500000D01*
X140500000Y-66500000D02*
X140000000Y-66500000D01*
%TO.N,Net-(U2B--)*%
X162620000Y-56420000D02*
X162620000Y-58960000D01*
%TO.N,/PIN3*%
X103000000Y-66500000D02*
X117500000Y-66500000D01*
X99880000Y-69620000D02*
X100000000Y-69500000D01*
X120500000Y-65455000D02*
X131000000Y-54955000D01*
X99880000Y-70760000D02*
X99880000Y-69620000D01*
X120500000Y-65500000D02*
X120500000Y-65455000D01*
%TO.N,/PIN23*%
X150400000Y-94000000D02*
X149455000Y-93055000D01*
X196540000Y-94460000D02*
X196500000Y-94500000D01*
X198000000Y-94460000D02*
X196540000Y-94460000D01*
X177000000Y-95000000D02*
X159100000Y-95000000D01*
X159100000Y-95000000D02*
X159000000Y-95100000D01*
X149455000Y-93055000D02*
X146240000Y-93055000D01*
%TO.N,/PIN2*%
X99880000Y-73300000D02*
X101200000Y-73300000D01*
X119600000Y-63000000D02*
X122100000Y-60500000D01*
X101200000Y-73300000D02*
X106000000Y-68500000D01*
X115600000Y-65900000D02*
X118000000Y-63500000D01*
X108500000Y-65900000D02*
X115600000Y-65900000D01*
X122915000Y-60500000D02*
X131000000Y-52415000D01*
X122100000Y-60500000D02*
X122915000Y-60500000D01*
%TO.N,/PIN24*%
X153500000Y-94500000D02*
X152000000Y-93000000D01*
X165500000Y-93500000D02*
X164500000Y-94500000D01*
X194500000Y-93500000D02*
X187000000Y-93500000D01*
X198000000Y-97000000D02*
X194500000Y-93500000D01*
X148415000Y-90515000D02*
X146240000Y-90515000D01*
X164500000Y-94500000D02*
X153500000Y-94500000D01*
X178000000Y-93500000D02*
X165500000Y-93500000D01*
X150400000Y-92500000D02*
X148415000Y-90515000D01*
%TO.N,/PIN1*%
X107500000Y-65000000D02*
X115500000Y-65000000D01*
X130625000Y-49875000D02*
X131000000Y-49875000D01*
X115500000Y-65000000D02*
X117000000Y-63500000D01*
X117000000Y-63500000D02*
X117000000Y-61500000D01*
X98000000Y-66900000D02*
X99400000Y-65500000D01*
X99400000Y-65500000D02*
X107000000Y-65500000D01*
X107000000Y-65500000D02*
X107500000Y-65000000D01*
X120000000Y-60500000D02*
X130625000Y-49875000D01*
X97500000Y-73460000D02*
X97500000Y-68500000D01*
X99880000Y-75840000D02*
X97500000Y-73460000D01*
%TO.N,Net-(Q3-C)*%
X123310000Y-76230000D02*
X123310000Y-78770000D01*
X87000000Y-110000000D02*
X90000000Y-110000000D01*
X111000000Y-102500000D02*
X113500000Y-102500000D01*
X91500000Y-111500000D02*
X95500000Y-111500000D01*
X116000000Y-97000000D02*
X116500000Y-96500000D01*
X122500000Y-101000000D02*
X122500000Y-100500000D01*
X95500000Y-111500000D02*
X96000000Y-112000000D01*
X83960000Y-113040000D02*
X87000000Y-110000000D01*
X90000000Y-110000000D02*
X91500000Y-111500000D01*
X121000000Y-102500000D02*
X122500000Y-101000000D01*
X83960000Y-113500000D02*
X83960000Y-113040000D01*
X112000000Y-97000000D02*
X116000000Y-97000000D01*
%TO.N,/RX*%
X125000000Y-71500000D02*
X121500000Y-71500000D01*
X121500000Y-71500000D02*
X121500000Y-80310000D01*
X110500000Y-94500000D02*
X114000000Y-94500000D01*
X125500000Y-71000000D02*
X125000000Y-71500000D01*
X121500000Y-80310000D02*
X120500000Y-81310000D01*
X127235000Y-72735000D02*
X125500000Y-71000000D01*
X131000000Y-72735000D02*
X127235000Y-72735000D01*
%TO.N,/TX*%
X118500000Y-78500000D02*
X120000000Y-77000000D01*
X107000000Y-99690000D02*
X118310000Y-99690000D01*
X117500000Y-94500000D02*
X118000000Y-94000000D01*
X123000000Y-83500000D02*
X121500000Y-83500000D01*
X123500000Y-84000000D02*
X123000000Y-83500000D01*
X121500000Y-83500000D02*
X118500000Y-80500000D01*
X118500000Y-80500000D02*
X118500000Y-78500000D01*
X118310000Y-99690000D02*
X119000000Y-99000000D01*
X118000000Y-94000000D02*
X123500000Y-94000000D01*
X123500000Y-89500000D02*
X123500000Y-84000000D01*
D31*
%TO.N,/CUT3*%
X88000000Y-63000000D02*
X84500000Y-63000000D01*
X87000000Y-40960000D02*
X84040000Y-40960000D01*
X84040000Y-40960000D02*
X83000000Y-42000000D01*
X88000000Y-59500000D02*
X88000000Y-63000000D01*
X89500000Y-58000000D02*
X88000000Y-59500000D01*
X83000000Y-42000000D02*
X83000000Y-55000000D01*
X86500000Y-55000000D02*
X89500000Y-58000000D01*
X84500000Y-63000000D02*
X83720000Y-63780000D01*
X83000000Y-55000000D02*
X86500000Y-55000000D01*
X83720000Y-63780000D02*
X83720000Y-66484000D01*
%TD*%
M02*
