M48
; DRILL file {KiCad 9.0.6} date 2026-08-07T03:23:23+0300
; FORMAT={-:-/ absolute / metric / decimal}
; #@! TF.CreationDate,2026-08-07T03:23:23+03:00
; #@! TF.GenerationSoftware,Kicad,Pcbnew,9.0.6
; #@! TF.FileFunction,Plated,1,2,PTH
FMAT,2
METRIC
; #@! TA.AperFunction,Plated,PTH,ViaDrill
T1C0.300
; #@! TA.AperFunction,Plated,PTH,ComponentDrill
T2C0.500
; #@! TA.AperFunction,Plated,PTH,ComponentDrill
T3C0.750
; #@! TA.AperFunction,Plated,PTH,ComponentDrill
T4C0.800
; #@! TA.AperFunction,Plated,PTH,ComponentDrill
T5C0.890
; #@! TA.AperFunction,Plated,PTH,ComponentDrill
T6C1.000
; #@! TA.AperFunction,Plated,PTH,ComponentDrill
T7C1.100
; #@! TA.AperFunction,Plated,PTH,ComponentDrill
T8C1.200
; #@! TA.AperFunction,Plated,PTH,ComponentDrill
T9C1.570
%
G90
G05
T1
X85.0Y-109.0
X88.0Y-71.5
X88.0Y-104.5
X89.0Y-66.0
X90.5Y-88.5
X91.5Y-87.0
X92.0Y-106.5
X93.0Y-108.5
X93.0Y-110.0
X96.0Y-112.0
X96.5Y-108.05
X97.0Y-64.0
X97.5Y-68.5
X98.0Y-66.9
X98.5Y-94.5
X100.0Y-69.5
X101.0Y-94.0
X103.0Y-66.5
X104.0Y-92.0
X104.5Y-94.0
X106.0Y-68.5
X106.0Y-93.0
X107.0Y-42.5
X108.5Y-65.9
X110.5Y-94.5
X111.0Y-102.5
X112.0Y-97.0
X113.5Y-102.5
X114.0Y-94.5
X115.0Y-48.0
X115.0Y-116.5
X116.5Y-91.5
X116.5Y-96.5
X117.0Y-61.5
X117.5Y-66.5
X117.5Y-78.5
X117.5Y-94.5
X118.0Y-63.5
X119.0Y-99.0
X119.6Y-63.0
X120.0Y-60.5
X120.0Y-77.0
X120.0Y-108.5
X120.5Y-65.5
X120.5Y-81.31
X121.0Y-99.0
X121.0Y-102.5
X122.5Y-100.5
X123.31Y-77.5
X123.5Y-89.5
X123.5Y-94.0
X124.0Y-47.5
X125.5Y-111.5
X130.5Y-103.5
X134.5Y-42.0
X134.5Y-44.5
X136.5Y-58.5
X139.5Y-45.0
X140.5Y-43.0
X140.5Y-57.0
X140.5Y-66.5
X141.5Y-49.5
X141.5Y-80.0
X141.5Y-90.5
X142.5Y-48.0
X143.5Y-49.5
X144.0Y-46.0
X144.5Y-94.0
X146.5Y-43.0
X148.5Y-107.5
X149.5Y-99.0
X149.6Y-55.0
X149.6Y-66.0
X150.1Y-95.5
X150.4Y-92.5
X150.4Y-94.0
X150.5Y-52.5
X150.5Y-100.0
X151.6Y-51.0
X151.6Y-95.5
X151.9Y-65.5
X152.0Y-93.0
X153.5Y-77.5
X154.0Y-41.0
X154.5Y-48.5
X158.0Y-51.5
X158.0Y-66.0
X158.5Y-54.5
X159.0Y-42.0
X159.0Y-95.1
X159.0Y-97.5
X161.0Y-52.0
X161.0Y-66.5
X163.0Y-41.0
X163.5Y-74.5
X165.0Y-44.6
X165.0Y-53.0
X165.0Y-76.0
X166.1Y-55.0
X166.1Y-58.5
X166.1Y-62.0
X167.0Y-102.1
X168.0Y-62.0
X169.0Y-41.0
X172.0Y-46.0
X172.4Y-59.0
X172.5Y-51.0
X175.0Y-52.5
X175.5Y-66.5
X177.0Y-95.0
X178.0Y-93.5
X179.0Y-96.0
X179.0Y-106.0
X180.5Y-102.5
X181.0Y-43.0
X181.0Y-104.0
X181.5Y-110.0
X182.0Y-67.5
X183.0Y-111.5
X183.5Y-45.5
X185.0Y-105.5
X185.5Y-56.0
X186.0Y-48.5
X186.0Y-51.5
X186.0Y-99.0
X187.0Y-93.5
X187.5Y-50.5
X187.5Y-53.0
X192.5Y-38.5
X194.0Y-106.0
X194.0Y-116.5
X194.5Y-80.5
X195.0Y-99.5
X195.5Y-47.5
X195.5Y-107.5
X196.5Y-94.5
X202.0Y-99.5
T2
X186.5Y-113.875
X187.5Y-113.875
X193.0Y-113.875
X194.0Y-113.875
T3
X83.96Y-113.5
X85.23Y-113.5
X86.5Y-113.5
T4
X77.0Y-83.5
X77.0Y-100.5
X79.5Y-90.0
X79.5Y-94.88
X82.0Y-83.5
X82.0Y-100.5
X86.38Y-97.42
X86.38Y-99.96
X86.38Y-102.5
X86.38Y-105.04
X89.69Y-114.0
X93.25Y-43.0
X94.0Y-97.42
X94.0Y-99.96
X94.0Y-102.5
X94.0Y-105.04
X95.75Y-43.0
X97.31Y-114.0
X99.88Y-70.76
X99.88Y-73.3
X99.88Y-75.84
X99.88Y-78.38
X99.88Y-80.92
X99.88Y-83.46
X99.88Y-86.0
X99.88Y-88.54
X100.5Y-96.705
X100.5Y-99.205
X100.5Y-104.0
X100.5Y-106.5
X101.69Y-114.0
X107.0Y-99.69
X107.0Y-107.31
X107.5Y-70.76
X107.5Y-73.3
X107.5Y-75.84
X107.5Y-78.38
X107.5Y-80.92
X107.5Y-83.46
X107.5Y-86.0
X107.5Y-88.54
X109.31Y-114.0
X113.5Y-109.25
X113.5Y-111.75
X113.705Y-41.0
X115.69Y-73.69
X115.69Y-76.23
X115.69Y-78.77
X115.69Y-81.31
X116.205Y-41.0
X118.0Y-85.0
X118.0Y-106.69
X118.0Y-114.31
X120.5Y-85.0
X121.19Y-41.0
X123.19Y-106.69
X123.19Y-109.23
X123.19Y-111.77
X123.19Y-114.31
X123.31Y-73.69
X123.31Y-76.23
X123.31Y-78.77
X123.31Y-81.31
X128.81Y-41.0
X130.81Y-106.69
X130.81Y-109.23
X130.81Y-111.77
X130.81Y-114.31
X131.0Y-49.875
X131.0Y-52.415
X131.0Y-54.955
X131.0Y-57.495
X131.0Y-60.035
X131.0Y-62.575
X131.0Y-65.115
X131.0Y-67.655
X131.0Y-70.195
X131.0Y-72.735
X131.0Y-75.275
X131.0Y-77.815
X131.0Y-80.355
X131.0Y-82.895
X131.0Y-85.435
X131.0Y-87.975
X131.0Y-90.515
X131.0Y-93.055
X131.0Y-95.595
X131.0Y-98.135
X135.5Y-106.25
X135.5Y-108.75
X140.69Y-114.0
X142.0Y-107.5
X144.5Y-107.5
X146.24Y-49.875
X146.24Y-52.415
X146.24Y-54.955
X146.24Y-57.495
X146.24Y-60.035
X146.24Y-62.575
X146.24Y-65.115
X146.24Y-67.655
X146.24Y-70.195
X146.24Y-72.735
X146.24Y-75.275
X146.24Y-77.815
X146.24Y-80.355
X146.24Y-82.895
X146.24Y-85.435
X146.24Y-87.975
X146.24Y-90.515
X146.24Y-93.055
X146.24Y-95.595
X146.24Y-98.135
X148.31Y-114.0
X151.25Y-114.0
X152.85Y-39.19
X152.85Y-46.81
X153.75Y-114.0
X155.0Y-53.88
X155.0Y-56.42
X155.0Y-58.96
X155.0Y-61.5
X155.19Y-66.5
X155.19Y-71.5
X155.19Y-81.5
X155.38Y-76.5
X155.38Y-86.5
X155.38Y-92.0
X156.9Y-39.19
X156.9Y-46.81
X160.95Y-39.19
X160.95Y-46.81
X162.62Y-53.88
X162.62Y-56.42
X162.62Y-58.96
X162.62Y-61.5
X162.81Y-66.5
X162.81Y-71.5
X162.81Y-81.5
X163.0Y-76.5
X163.0Y-86.5
X163.0Y-92.0
X165.0Y-39.19
X165.0Y-46.81
X168.318Y-69.5
X168.318Y-80.0
X170.5Y-53.0
X170.5Y-55.5
X170.5Y-60.0
X170.5Y-62.5
X170.818Y-69.5
X170.818Y-80.0
X176.682Y-61.0
X177.5Y-53.0
X177.5Y-55.5
X179.182Y-61.0
T5
X83.72Y-66.484
X83.72Y-68.516
X83.72Y-70.548
X83.72Y-72.58
X85.5Y-65.468
X85.5Y-67.5
X85.5Y-69.532
X85.5Y-71.564
T6
X87.0Y-40.96
X87.0Y-43.5
X190.0Y-40.725
X190.0Y-43.265
X190.0Y-48.5
X190.0Y-51.04
X190.5Y-57.0
X190.5Y-59.54
X190.5Y-65.5
X190.5Y-68.04
X190.5Y-74.725
X190.5Y-77.265
X190.5Y-83.38
X190.5Y-85.92
X190.5Y-88.46
X190.5Y-91.0
X190.5Y-97.5
X190.5Y-100.04
X190.5Y-102.58
X198.0Y-54.225
X198.0Y-56.765
X198.0Y-62.46
X198.0Y-65.0
X198.0Y-80.225
X198.0Y-82.765
X198.0Y-89.38
X198.0Y-91.92
X198.0Y-94.46
X198.0Y-97.0
X198.0Y-103.0
X198.0Y-105.54
T7
X94.73Y-49.96
X94.73Y-52.5
X94.73Y-55.04
T8
X102.0Y-52.5
X109.5Y-52.5
T9
X84.61Y-60.89
X84.61Y-77.15
M30
