%TF.GenerationSoftware,KiCad,Pcbnew,9.0.6*%
%TF.CreationDate,2026-08-07T03:21:20+03:00*%
%TF.ProjectId,RetroCom,52657472-6f43-46f6-9d2e-6b696361645f,rev?*%
%TF.SameCoordinates,Original*%
%TF.FileFunction,Copper,L1,Top*%
%TF.FilePolarity,Positive*%
%FSLAX46Y46*%
G04 Gerber Fmt 4.6, Leading zero omitted, Abs format (unit mm)*
G04 Created by KiCad (PCBNEW 9.0.6) date 2026-08-07 03:21:20*
%MOMM*%
%LPD*%
G01*
G04 APERTURE LIST*
G04 Aperture macros list*
%AMRoundRect*
0 Rectangle with rounded corners*
0 $1 Rounding radius*
0 $2 $3 $4 $5 $6 $7 $8 $9 X,Y pos of 4 corners*
0 Add a 4 corners polygon primitive as box body*
4,1,4,$2,$3,$4,$5,$6,$7,$8,$9,$2,$3,0*
0 Add four circle primitives for the rounded corners*
1,1,$1+$1,$2,$3*
1,1,$1+$1,$4,$5*
1,1,$1+$1,$6,$7*
1,1,$1+$1,$8,$9*
0 Add four rect primitives between the rounded corners*
20,1,$1+$1,$2,$3,$4,$5,0*
20,1,$1+$1,$4,$5,$6,$7,0*
20,1,$1+$1,$6,$7,$8,$9,0*
20,1,$1+$1,$8,$9,$2,$3,0*%
G04 Aperture macros list end*
%TA.AperFunction,ComponentPad*%
%ADD10RoundRect,0.250000X0.550000X0.550000X-0.550000X0.550000X-0.550000X-0.550000X0.550000X-0.550000X0*%
%TD*%
%TA.AperFunction,ComponentPad*%
%ADD11C,1.600000*%
%TD*%
%TA.AperFunction,ComponentPad*%
%ADD12R,1.050000X1.500000*%
%TD*%
%TA.AperFunction,ComponentPad*%
%ADD13O,1.050000X1.500000*%
%TD*%
%TA.AperFunction,ComponentPad*%
%ADD14R,1.700000X1.700000*%
%TD*%
%TA.AperFunction,ComponentPad*%
%ADD15C,1.700000*%
%TD*%
%TA.AperFunction,ComponentPad*%
%ADD16R,1.500000X1.500000*%
%TD*%
%TA.AperFunction,ComponentPad*%
%ADD17C,1.500000*%
%TD*%
%TA.AperFunction,ComponentPad*%
%ADD18C,2.300000*%
%TD*%
%TA.AperFunction,ComponentPad*%
%ADD19RoundRect,0.250000X-0.550000X-0.550000X0.550000X-0.550000X0.550000X0.550000X-0.550000X0.550000X0*%
%TD*%
%TA.AperFunction,ComponentPad*%
%ADD20R,0.850000X0.850000*%
%TD*%
%TA.AperFunction,ComponentPad*%
%ADD21C,0.850000*%
%TD*%
%TA.AperFunction,SMDPad,CuDef*%
%ADD22RoundRect,0.087500X-0.725000X-0.087500X0.725000X-0.087500X0.725000X0.087500X-0.725000X0.087500X0*%
%TD*%
%TA.AperFunction,ComponentPad*%
%ADD23C,1.778000*%
%TD*%
%TA.AperFunction,ComponentPad*%
%ADD24C,1.000000*%
%TD*%
%TA.AperFunction,ComponentPad*%
%ADD25R,1.905000X2.000000*%
%TD*%
%TA.AperFunction,ComponentPad*%
%ADD26O,1.905000X2.000000*%
%TD*%
%TA.AperFunction,ComponentPad*%
%ADD27RoundRect,0.250001X0.949999X0.949999X-0.949999X0.949999X-0.949999X-0.949999X0.949999X-0.949999X0*%
%TD*%
%TA.AperFunction,ComponentPad*%
%ADD28C,2.400000*%
%TD*%
%TA.AperFunction,ComponentPad*%
%ADD29RoundRect,0.250000X-1.050000X1.050000X-1.050000X-1.050000X1.050000X-1.050000X1.050000X1.050000X0*%
%TD*%
%TA.AperFunction,ComponentPad*%
%ADD30C,2.600000*%
%TD*%
%TA.AperFunction,ComponentPad*%
%ADD31RoundRect,0.250000X-0.550000X0.550000X-0.550000X-0.550000X0.550000X-0.550000X0.550000X0.550000X0*%
%TD*%
%TA.AperFunction,ViaPad*%
%ADD32C,0.600000*%
%TD*%
%TA.AperFunction,ViaPad*%
%ADD33C,0.800000*%
%TD*%
%TA.AperFunction,Conductor*%
%ADD34C,0.250000*%
%TD*%
%TA.AperFunction,Conductor*%
%ADD35C,0.600000*%
%TD*%
%TA.AperFunction,Conductor*%
%ADD36C,1.000000*%
%TD*%
G04 APERTURE END LIST*
D10*
%TO.P,C11,1*%
%TO.N,Net-(C11-Pad1)*%
X171000000Y-51500000D03*
D11*
%TO.P,C11,2*%
%TO.N,/CUT1*%
X168500000Y-51500000D03*
%TD*%
D12*
%TO.P,Q1,1,E*%
%TO.N,GND*%
X93270000Y-113640000D03*
D13*
%TO.P,Q1,2,B*%
%TO.N,Net-(Q1-B)*%
X92000000Y-113640000D03*
%TO.P,Q1,3,C*%
%TO.N,Net-(Q1-C)*%
X90730000Y-113640000D03*
%TD*%
D11*
%TO.P,R5,1*%
%TO.N,Net-(MK2-+)*%
X188190000Y-57500000D03*
%TO.P,R5,2*%
%TO.N,/VCC*%
X195810000Y-57500000D03*
%TD*%
D10*
%TO.P,U8,1,NC*%
%TO.N,unconnected-(U8-NC-Pad1)*%
X140810000Y-138810000D03*
D11*
%TO.P,U8,2,CAP+*%
%TO.N,Net-(U8-CAP+)*%
X140810000Y-136270000D03*
%TO.P,U8,3,GND*%
%TO.N,GND*%
X140810000Y-133730000D03*
%TO.P,U8,4,CAP-*%
%TO.N,Net-(U8-CAP-)*%
X140810000Y-131190000D03*
%TO.P,U8,5,VOUT*%
%TO.N,/N5V*%
X133190000Y-131190000D03*
%TO.P,U8,6,LV*%
%TO.N,unconnected-(U8-LV-Pad6)*%
X133190000Y-133730000D03*
%TO.P,U8,7,OSC*%
%TO.N,unconnected-(U8-OSC-Pad7)*%
X133190000Y-136270000D03*
%TO.P,U8,8,V+*%
%TO.N,/VCC*%
X133190000Y-138810000D03*
%TD*%
D14*
%TO.P,D1,1,K*%
%TO.N,/PIN21*%
X221500000Y-78225000D03*
D15*
%TO.P,D1,2,A*%
%TO.N,Net-(D1-A)*%
X221500000Y-80765000D03*
%TD*%
D11*
%TO.P,R2,1*%
%TO.N,Net-(Q1-B)*%
X96310000Y-107500000D03*
%TO.P,R2,2*%
%TO.N,/TX2*%
X88690000Y-107500000D03*
%TD*%
D10*
%TO.P,U4,1,X4*%
%TO.N,SWR*%
X124310000Y-147540000D03*
D11*
%TO.P,U4,2,X6*%
%TO.N,unconnected-(U4-X6-Pad2)*%
X124310000Y-145000000D03*
%TO.P,U4,3,X*%
%TO.N,/LM1*%
X124310000Y-142460000D03*
%TO.P,U4,4,X7*%
%TO.N,unconnected-(U4-X7-Pad4)*%
X124310000Y-139920000D03*
%TO.P,U4,5,X5*%
%TO.N,unconnected-(U4-X5-Pad5)*%
X124310000Y-137380000D03*
%TO.P,U4,6,INH*%
%TO.N,GND*%
X124310000Y-134840000D03*
%TO.P,U4,7,VEE*%
%TO.N,/N5V*%
X124310000Y-132300000D03*
%TO.P,U4,8,VSS*%
%TO.N,GND*%
X124310000Y-129760000D03*
%TO.P,U4,9,C*%
%TO.N,/PIN3*%
X116690000Y-129760000D03*
%TO.P,U4,10,B*%
%TO.N,/PIN2*%
X116690000Y-132300000D03*
%TO.P,U4,11,A*%
%TO.N,/PIN1*%
X116690000Y-134840000D03*
%TO.P,U4,12,X3*%
%TO.N,SW4*%
X116690000Y-137380000D03*
%TO.P,U4,13,X0*%
%TO.N,unconnected-(U4-X0-Pad13)*%
X116690000Y-139920000D03*
%TO.P,U4,14,X1*%
%TO.N,SW2*%
X116690000Y-142460000D03*
%TO.P,U4,15,X2*%
%TO.N,SW3*%
X116690000Y-145000000D03*
%TO.P,U4,16,VDD*%
%TO.N,/VCC*%
X116690000Y-147540000D03*
%TD*%
D12*
%TO.P,Q3,1,E*%
%TO.N,GND*%
X92810000Y-68000000D03*
D13*
%TO.P,Q3,2,B*%
%TO.N,Net-(Q3-B)*%
X91540000Y-68000000D03*
%TO.P,Q3,3,C*%
%TO.N,Net-(Q3-C)*%
X90270000Y-68000000D03*
%TD*%
D11*
%TO.P,R12,1*%
%TO.N,Net-(Q3-B)*%
X96810000Y-53000000D03*
%TO.P,R12,2*%
%TO.N,/TX4*%
X89190000Y-53000000D03*
%TD*%
D14*
%TO.P,SW21,1,1*%
%TO.N,GND*%
X219500000Y-104225000D03*
D15*
%TO.P,SW21,2,2*%
%TO.N,/PIN14*%
X219500000Y-106765000D03*
%TD*%
D10*
%TO.P,C45,1*%
%TO.N,GND*%
X190682380Y-87000000D03*
D11*
%TO.P,C45,2*%
%TO.N,/N5V*%
X188182380Y-87000000D03*
%TD*%
%TO.P,R25,1*%
%TO.N,GND*%
X163690000Y-85310000D03*
%TO.P,R25,2*%
%TO.N,Net-(C42-Pad2)*%
X163690000Y-77690000D03*
%TD*%
%TO.P,R21,1*%
%TO.N,GND*%
X195690000Y-88000000D03*
%TO.P,R21,2*%
%TO.N,Net-(C41-Pad1)*%
X195690000Y-80380000D03*
%TD*%
%TO.P,R26,1*%
%TO.N,Net-(D3-A)*%
X228810000Y-94725000D03*
%TO.P,R26,2*%
%TO.N,/VCC*%
X221190000Y-94725000D03*
%TD*%
%TO.P,R8,1*%
%TO.N,/VCC*%
X96310000Y-81450000D03*
%TO.P,R8,2*%
%TO.N,/RX3*%
X88690000Y-81450000D03*
%TD*%
%TO.P,C14,1*%
%TO.N,Net-(10K1-Pad2)*%
X196250000Y-48000000D03*
%TO.P,C14,2*%
%TO.N,Net-(MK2-+)*%
X193750000Y-48000000D03*
%TD*%
%TO.P,R20,1*%
%TO.N,Net-(C41-Pad1)*%
X194500000Y-73190000D03*
%TO.P,R20,2*%
%TO.N,Net-(U18A-+)*%
X186880000Y-73190000D03*
%TD*%
D12*
%TO.P,Q2,1,E*%
%TO.N,GND*%
X93270000Y-91140000D03*
D13*
%TO.P,Q2,2,B*%
%TO.N,Net-(Q2-B)*%
X92000000Y-91140000D03*
%TO.P,Q2,3,C*%
%TO.N,Net-(Q2-C)*%
X90730000Y-91140000D03*
%TD*%
D10*
%TO.P,U11,1,RO*%
%TO.N,/RX2*%
X82500000Y-106810000D03*
D11*
%TO.P,U11,2,~{RE}*%
%TO.N,Net-(Q1-C)*%
X82500000Y-104270000D03*
%TO.P,U11,3,DE*%
X82500000Y-101730000D03*
%TO.P,U11,4,DI*%
%TO.N,/TX2*%
X82500000Y-99190000D03*
%TO.P,U11,5,GND*%
%TO.N,GND*%
X74880000Y-99190000D03*
%TO.P,U11,6,A*%
%TO.N,/BUS12*%
X74880000Y-101730000D03*
%TO.P,U11,7,B*%
%TO.N,/BUS22*%
X74880000Y-104270000D03*
%TO.P,U11,8,VCC*%
%TO.N,/VCC*%
X74880000Y-106810000D03*
%TD*%
D16*
%TO.P,J2,1*%
%TO.N,SW1*%
X53110000Y-101690000D03*
D17*
%TO.P,J2,2*%
%TO.N,SW2*%
X54890000Y-100674000D03*
%TO.P,J2,3*%
%TO.N,SW3*%
X53110000Y-99658000D03*
%TO.P,J2,4*%
%TO.N,SW4*%
X54890000Y-98642000D03*
%TO.P,J2,5*%
%TO.N,/BUS22*%
X53110000Y-97626000D03*
%TO.P,J2,6*%
%TO.N,/BUS12*%
X54890000Y-96610000D03*
%TO.P,J2,7*%
%TO.N,12V*%
X53110000Y-95594000D03*
%TO.P,J2,8*%
%TO.N,GND*%
X54890000Y-94578000D03*
D18*
%TO.P,J2,SH*%
%TO.N,N/C*%
X54000000Y-106260000D03*
X54000000Y-90000000D03*
%TD*%
D11*
%TO.P,R10,1*%
%TO.N,/VCC*%
X96810000Y-61100000D03*
%TO.P,R10,2*%
%TO.N,Net-(Q3-C)*%
X89190000Y-61100000D03*
%TD*%
D19*
%TO.P,C70,1*%
%TO.N,Net-(U29-LOUT)*%
X71000000Y-144500000D03*
D11*
%TO.P,C70,2*%
%TO.N,SWR*%
X73500000Y-144500000D03*
%TD*%
%TO.P,C69,1*%
%TO.N,Net-(J1-Pin_2)*%
X57250000Y-145500000D03*
%TO.P,C69,2*%
%TO.N,Net-(U29-FMIN)*%
X59750000Y-145500000D03*
%TD*%
%TO.P,C2,1*%
%TO.N,GND*%
X114000000Y-107500000D03*
%TO.P,C2,2*%
%TO.N,/XTAL1*%
X119000000Y-107500000D03*
%TD*%
%TO.P,R3,1*%
%TO.N,/VCC*%
X96310000Y-103500000D03*
%TO.P,R3,2*%
%TO.N,Net-(Q1-C)*%
X88690000Y-103500000D03*
%TD*%
D14*
%TO.P,LS1,1,1*%
%TO.N,GND*%
X163500000Y-54000000D03*
D15*
%TO.P,LS1,2,2*%
%TO.N,/CUT2*%
X163500000Y-56540000D03*
%TD*%
D20*
%TO.P,10K1,1*%
%TO.N,/SW1UF*%
X193625000Y-52000000D03*
D21*
%TO.P,10K1,2*%
%TO.N,Net-(10K1-Pad2)*%
X193625000Y-53000000D03*
%TD*%
D11*
%TO.P,R18,1*%
%TO.N,Net-(D1-A)*%
X217310000Y-94725000D03*
%TO.P,R18,2*%
%TO.N,/VCC*%
X209690000Y-94725000D03*
%TD*%
D14*
%TO.P,D3,1,K*%
%TO.N,GND*%
X216500000Y-78225000D03*
D15*
%TO.P,D3,2,A*%
%TO.N,Net-(D3-A)*%
X216500000Y-80765000D03*
%TD*%
D14*
%TO.P,D2,1,K*%
%TO.N,/PIN22*%
X221500000Y-86225000D03*
D15*
%TO.P,D2,2,A*%
%TO.N,Net-(D2-A)*%
X221500000Y-88765000D03*
%TD*%
D14*
%TO.P,MK2,1,-*%
%TO.N,GND*%
X189000000Y-49225000D03*
D15*
%TO.P,MK2,2,+*%
%TO.N,Net-(MK2-+)*%
X189000000Y-51765000D03*
%TD*%
D22*
%TO.P,U29,1,GND*%
%TO.N,GND*%
X63887500Y-136500000D03*
%TO.P,U29,2,FMIN*%
%TO.N,Net-(U29-FMIN)*%
X63887500Y-137000000D03*
%TO.P,U29,3,GND*%
%TO.N,GND*%
X63887500Y-137500000D03*
%TO.P,U29,4,SCLK*%
%TO.N,/PIN25V3*%
X63887500Y-138000000D03*
%TO.P,U29,5,SDIO*%
%TO.N,/PIN26V3*%
X63887500Y-138500000D03*
%TO.P,U29,6,RCLK*%
%TO.N,Net-(U29-RCLK)*%
X68112500Y-138500000D03*
%TO.P,U29,7,VDD*%
%TO.N,/3.3V*%
X68112500Y-138000000D03*
%TO.P,U29,8,GND*%
%TO.N,GND*%
X68112500Y-137500000D03*
%TO.P,U29,9,ROUT*%
%TO.N,unconnected-(U29-ROUT-Pad9)*%
X68112500Y-137000000D03*
%TO.P,U29,10,LOUT*%
%TO.N,Net-(U29-LOUT)*%
X68112500Y-136500000D03*
%TD*%
D11*
%TO.P,C41,1*%
%TO.N,Net-(C41-Pad1)*%
X188440000Y-79690000D03*
%TO.P,C41,2*%
%TO.N,/SW1UF*%
X190940000Y-79690000D03*
%TD*%
D19*
%TO.P,U1,1,P1.0*%
%TO.N,/PIN1*%
X131760000Y-64480000D03*
D11*
%TO.P,U1,2,P1.1*%
%TO.N,/PIN2*%
X131760000Y-67020000D03*
%TO.P,U1,3,P1.2*%
%TO.N,/PIN3*%
X131760000Y-69560000D03*
%TO.P,U1,4,P1.3*%
%TO.N,/PIN4*%
X131760000Y-72100000D03*
%TO.P,U1,5,P1.4*%
%TO.N,/PIN5*%
X131760000Y-74640000D03*
%TO.P,U1,6,P1.5*%
%TO.N,/PIN6*%
X131760000Y-77180000D03*
%TO.P,U1,7,P1.6*%
%TO.N,/PIN7*%
X131760000Y-79720000D03*
%TO.P,U1,8,P1.7*%
%TO.N,/PIN8*%
X131760000Y-82260000D03*
%TO.P,U1,9,RST*%
%TO.N,/RST*%
X131760000Y-84800000D03*
%TO.P,U1,10,P3.0*%
%TO.N,/RX*%
X131760000Y-87340000D03*
%TO.P,U1,11,P3.1*%
%TO.N,/TX*%
X131760000Y-89880000D03*
%TO.P,U1,12,P3.2*%
%TO.N,/PIN12*%
X131760000Y-92420000D03*
%TO.P,U1,13,P3.3*%
%TO.N,/PIN13*%
X131760000Y-94960000D03*
%TO.P,U1,14,P3.4*%
%TO.N,/PIN14*%
X131760000Y-97500000D03*
%TO.P,U1,15,P3.5*%
%TO.N,unconnected-(U1-P3.5-Pad15)*%
X131760000Y-100040000D03*
%TO.P,U1,16,P3.6*%
%TO.N,unconnected-(U1-P3.6-Pad16)*%
X131760000Y-102580000D03*
%TO.P,U1,17,P3.7*%
%TO.N,unconnected-(U1-P3.7-Pad17)*%
X131760000Y-105120000D03*
%TO.P,U1,18,XTAL2*%
%TO.N,/XTAL2*%
X131760000Y-107660000D03*
%TO.P,U1,19,XTAL1*%
%TO.N,/XTAL1*%
X131760000Y-110200000D03*
%TO.P,U1,20,GND*%
%TO.N,GND*%
X131760000Y-112740000D03*
%TO.P,U1,21,P2.0*%
%TO.N,/PIN21*%
X147000000Y-112740000D03*
%TO.P,U1,22,P2.1*%
%TO.N,/PIN22*%
X147000000Y-110200000D03*
%TO.P,U1,23,P2.2*%
%TO.N,/PIN23*%
X147000000Y-107660000D03*
%TO.P,U1,24,P2.3*%
%TO.N,/PIN24*%
X147000000Y-105120000D03*
%TO.P,U1,25,P2.4*%
%TO.N,/PIN25*%
X147000000Y-102580000D03*
%TO.P,U1,26,P2.5*%
%TO.N,/PIN26*%
X147000000Y-100040000D03*
%TO.P,U1,27,P2.6*%
%TO.N,/PIN27*%
X147000000Y-97500000D03*
%TO.P,U1,28,P2.7*%
%TO.N,/PIN28*%
X147000000Y-94960000D03*
%TO.P,U1,29,~PSEN*%
%TO.N,unconnected-(U1-~PSEN-Pad29)*%
X147000000Y-92420000D03*
%TO.P,U1,30,ALE/~PROG*%
%TO.N,unconnected-(U1-ALE{slash}~PROG-Pad30)*%
X147000000Y-89880000D03*
%TO.P,U1,31,~EA/VPP*%
%TO.N,/VCC*%
X147000000Y-87340000D03*
%TO.P,U1,32,P0.7*%
%TO.N,unconnected-(U1-P0.7-Pad32)*%
X147000000Y-84800000D03*
%TO.P,U1,33,P0.6*%
%TO.N,unconnected-(U1-P0.6-Pad33)*%
X147000000Y-82260000D03*
%TO.P,U1,34,P0.5*%
%TO.N,unconnected-(U1-P0.5-Pad34)*%
X147000000Y-79720000D03*
%TO.P,U1,35,P0.4*%
%TO.N,unconnected-(U1-P0.4-Pad35)*%
X147000000Y-77180000D03*
%TO.P,U1,36,P0.3*%
%TO.N,unconnected-(U1-P0.3-Pad36)*%
X147000000Y-74640000D03*
%TO.P,U1,37,P0.2*%
%TO.N,unconnected-(U1-P0.2-Pad37)*%
X147000000Y-72100000D03*
%TO.P,U1,38,P0.1*%
%TO.N,unconnected-(U1-P0.1-Pad38)*%
X147000000Y-69560000D03*
%TO.P,U1,39,P0.0*%
%TO.N,unconnected-(U1-P0.0-Pad39)*%
X147000000Y-67020000D03*
%TO.P,U1,40,VCC*%
%TO.N,/VCC*%
X147000000Y-64480000D03*
%TD*%
D14*
%TO.P,RV6,1,1*%
%TO.N,/LM1*%
X200000000Y-49920000D03*
D15*
%TO.P,RV6,2,2*%
%TO.N,/LM1VC*%
X200000000Y-52460000D03*
%TO.P,RV6,3,3*%
%TO.N,GND*%
X200000000Y-55000000D03*
%TD*%
D14*
%TO.P,U9,1,VCC*%
%TO.N,/VCC*%
X215460000Y-72225000D03*
D15*
%TO.P,U9,2,GND*%
%TO.N,GND*%
X218000000Y-72225000D03*
%TO.P,U9,3,SDA*%
%TO.N,/PIN23*%
X220540000Y-72225000D03*
%TO.P,U9,4,SCL*%
%TO.N,/PIN24*%
X223080000Y-72225000D03*
%TD*%
D10*
%TO.P,U6,1,RO*%
%TO.N,/RX4*%
X82310000Y-61070000D03*
D11*
%TO.P,U6,2,~{RE}*%
%TO.N,Net-(Q3-C)*%
X82310000Y-58530000D03*
%TO.P,U6,3,DE*%
X82310000Y-55990000D03*
%TO.P,U6,4,DI*%
%TO.N,/TX4*%
X82310000Y-53450000D03*
%TO.P,U6,5,GND*%
%TO.N,GND*%
X74690000Y-53450000D03*
%TO.P,U6,6,A*%
%TO.N,/BUS14*%
X74690000Y-55990000D03*
%TO.P,U6,7,B*%
%TO.N,/BUS24*%
X74690000Y-58530000D03*
%TO.P,U6,8,VCC*%
%TO.N,/VCC*%
X74690000Y-61070000D03*
%TD*%
D23*
%TO.P,U2,A1,A1*%
%TO.N,unconnected-(U2-PadA1)*%
X101580000Y-141746500D03*
%TO.P,U2,A2,A2*%
%TO.N,unconnected-(U2-PadA2)*%
X101580000Y-139206500D03*
%TO.P,U2,A3,A3*%
%TO.N,/PIN26*%
X101580000Y-136666500D03*
%TO.P,U2,A4,A4*%
%TO.N,/PIN25*%
X101580000Y-134126500D03*
%TO.P,U2,B1,B1*%
%TO.N,unconnected-(U2-PadB1)*%
X91420000Y-141746500D03*
%TO.P,U2,B2,B2*%
%TO.N,unconnected-(U2-PadB2)*%
X91420000Y-139206500D03*
%TO.P,U2,B3,B3*%
%TO.N,/PIN26V3*%
X91420000Y-136666500D03*
%TO.P,U2,B4,B4*%
%TO.N,/PIN25V3*%
X91420000Y-134126500D03*
%TO.P,U2,GND_1,GND*%
%TO.N,GND*%
X101580000Y-131586500D03*
%TO.P,U2,GND_2,GND*%
X91420000Y-131586500D03*
%TO.P,U2,HV,HV*%
%TO.N,/VCC*%
X91420000Y-144286500D03*
%TO.P,U2,LV,LV*%
%TO.N,/3.3V*%
X101580000Y-144286500D03*
%TD*%
D14*
%TO.P,D14,1,K*%
%TO.N,/PIN28*%
X216500000Y-86225000D03*
D15*
%TO.P,D14,2,A*%
%TO.N,Net-(D14-A)*%
X216500000Y-88765000D03*
%TD*%
D14*
%TO.P,SW4,1,1*%
%TO.N,GND*%
X214500000Y-112225000D03*
D15*
%TO.P,SW4,2,2*%
%TO.N,/PIN7*%
X214500000Y-114765000D03*
%TD*%
D11*
%TO.P,C4,1*%
%TO.N,GND*%
X77250000Y-91500000D03*
%TO.P,C4,2*%
%TO.N,/VCC*%
X79750000Y-91500000D03*
%TD*%
D16*
%TO.P,J3,1*%
%TO.N,SW1*%
X53220000Y-81612000D03*
D17*
%TO.P,J3,2*%
%TO.N,SW2*%
X55000000Y-80596000D03*
%TO.P,J3,3*%
%TO.N,SW3*%
X53220000Y-79580000D03*
%TO.P,J3,4*%
%TO.N,SW4*%
X55000000Y-78564000D03*
%TO.P,J3,5*%
%TO.N,/BUS13*%
X53220000Y-77548000D03*
%TO.P,J3,6*%
%TO.N,/BUS23*%
X55000000Y-76532000D03*
%TO.P,J3,7*%
%TO.N,12V*%
X53220000Y-75516000D03*
%TO.P,J3,8*%
%TO.N,GND*%
X55000000Y-74500000D03*
D18*
%TO.P,J3,SH*%
%TO.N,N/C*%
X54110000Y-86182000D03*
X54110000Y-69922000D03*
%TD*%
D20*
%TO.P,BZ1,1,+*%
%TO.N,/VCC*%
X220000000Y-111225000D03*
D21*
%TO.P,BZ1,2,-*%
%TO.N,/PIN8*%
X219000000Y-111225000D03*
%TD*%
D24*
%TO.P,Y2,1,1*%
%TO.N,Net-(U29-RCLK)*%
X69000000Y-133000000D03*
%TO.P,Y2,2,2*%
%TO.N,GND*%
X67100000Y-133000000D03*
%TD*%
D11*
%TO.P,R19,1*%
%TO.N,Net-(D2-A)*%
X217310000Y-98225000D03*
%TO.P,R19,2*%
%TO.N,/VCC*%
X209690000Y-98225000D03*
%TD*%
D10*
%TO.P,U10,1,Y0*%
%TO.N,/RX2*%
X111620000Y-91540000D03*
D11*
%TO.P,U10,2,Y2*%
%TO.N,/RX4*%
X111620000Y-89000000D03*
%TO.P,U10,3,Y*%
%TO.N,/RX*%
X111620000Y-86460000D03*
%TO.P,U10,4,Y3*%
%TO.N,unconnected-(U10-Y3-Pad4)*%
X111620000Y-83920000D03*
%TO.P,U10,5,Y1*%
%TO.N,/RX3*%
X111620000Y-81380000D03*
%TO.P,U10,6,INH*%
%TO.N,GND*%
X111620000Y-78840000D03*
%TO.P,U10,7,VEE*%
X111620000Y-76300000D03*
%TO.P,U10,8,VSS*%
X111620000Y-73760000D03*
%TO.P,U10,9,B*%
%TO.N,/PIN13*%
X104000000Y-73760000D03*
%TO.P,U10,10,A*%
%TO.N,/PIN12*%
X104000000Y-76300000D03*
%TO.P,U10,11,X3*%
%TO.N,unconnected-(U10-X3-Pad11)*%
X104000000Y-78840000D03*
%TO.P,U10,12,X0*%
%TO.N,/TX2*%
X104000000Y-81380000D03*
%TO.P,U10,13,X*%
%TO.N,/TX*%
X104000000Y-83920000D03*
%TO.P,U10,14,X1*%
%TO.N,/TX3*%
X104000000Y-86460000D03*
%TO.P,U10,15,X2*%
%TO.N,/TX4*%
X104000000Y-89000000D03*
%TO.P,U10,16,VDD*%
%TO.N,/VCC*%
X104000000Y-91540000D03*
%TD*%
%TO.P,R1,1*%
%TO.N,/RST*%
X122500000Y-82810000D03*
%TO.P,R1,2*%
%TO.N,GND*%
X122500000Y-75190000D03*
%TD*%
D25*
%TO.P,U31,1,IN*%
%TO.N,/VCC*%
X85040000Y-147230000D03*
D26*
%TO.P,U31,2,GND*%
%TO.N,GND*%
X82500000Y-147230000D03*
%TO.P,U31,3,OUT*%
%TO.N,/3.3V*%
X79960000Y-147230000D03*
%TD*%
D11*
%TO.P,R24,1*%
%TO.N,Net-(C42-Pad2)*%
X158690000Y-85310000D03*
%TO.P,R24,2*%
%TO.N,SW1*%
X158690000Y-77690000D03*
%TD*%
%TO.P,R50,1*%
%TO.N,Net-(D14-A)*%
X228810000Y-98225000D03*
%TO.P,R50,2*%
%TO.N,/VCC*%
X221190000Y-98225000D03*
%TD*%
D27*
%TO.P,C27,1*%
%TO.N,/VCC*%
X169512755Y-134000000D03*
D28*
%TO.P,C27,2*%
%TO.N,GND*%
X162012755Y-134000000D03*
%TD*%
D10*
%TO.P,U5,1,RO*%
%TO.N,/RX3*%
X82310000Y-85810000D03*
D11*
%TO.P,U5,2,~{RE}*%
%TO.N,Net-(Q2-C)*%
X82310000Y-83270000D03*
%TO.P,U5,3,DE*%
X82310000Y-80730000D03*
%TO.P,U5,4,DI*%
%TO.N,/TX3*%
X82310000Y-78190000D03*
%TO.P,U5,5,GND*%
%TO.N,GND*%
X74690000Y-78190000D03*
%TO.P,U5,6,A*%
%TO.N,/BUS13*%
X74690000Y-80730000D03*
%TO.P,U5,7,B*%
%TO.N,/BUS23*%
X74690000Y-83270000D03*
%TO.P,U5,8,VCC*%
%TO.N,/VCC*%
X74690000Y-85810000D03*
%TD*%
D19*
%TO.P,C42,1*%
%TO.N,Net-(C42-Pad1)*%
X169007621Y-78190000D03*
D11*
%TO.P,C42,2*%
%TO.N,Net-(C42-Pad2)*%
X171507621Y-78190000D03*
%TD*%
D14*
%TO.P,SW17,1,1*%
%TO.N,GND*%
X159000000Y-49000000D03*
D15*
%TO.P,SW17,2,2*%
%TO.N,/PIN27*%
X159000000Y-51540000D03*
%TO.P,SW17,3,3*%
%TO.N,/CUT1*%
X159000000Y-54080000D03*
%TO.P,SW17,4,4*%
%TO.N,/CUT2*%
X159000000Y-56620000D03*
%TD*%
D11*
%TO.P,C44,1*%
%TO.N,GND*%
X181690000Y-73000000D03*
%TO.P,C44,2*%
%TO.N,/N5V*%
X181690000Y-75500000D03*
%TD*%
D14*
%TO.P,SW1,1,1*%
%TO.N,GND*%
X225000000Y-104225000D03*
D15*
%TO.P,SW1,2,2*%
%TO.N,/PIN4*%
X225000000Y-106765000D03*
%TD*%
D14*
%TO.P,SW3,1,1*%
%TO.N,GND*%
X224000000Y-112450000D03*
D15*
%TO.P,SW3,2,2*%
%TO.N,/PIN6*%
X224000000Y-114990000D03*
%TD*%
D11*
%TO.P,R4,1*%
%TO.N,Net-(C12-Pad2)*%
X183810000Y-45500000D03*
%TO.P,R4,2*%
%TO.N,Net-(C11-Pad1)*%
X176190000Y-45500000D03*
%TD*%
%TO.P,R11,1*%
%TO.N,/VCC*%
X96810000Y-57050000D03*
%TO.P,R11,2*%
%TO.N,/RX4*%
X89190000Y-57050000D03*
%TD*%
D14*
%TO.P,J5,1,Pin_1*%
%TO.N,GND*%
X209000000Y-136725000D03*
D15*
%TO.P,J5,2,Pin_2*%
%TO.N,/CUT3*%
X209000000Y-139265000D03*
%TD*%
D11*
%TO.P,R6,1*%
%TO.N,/VCC*%
X96310000Y-99500000D03*
%TO.P,R6,2*%
%TO.N,/RX2*%
X88690000Y-99500000D03*
%TD*%
%TO.P,C1,1*%
%TO.N,GND*%
X114000000Y-112500000D03*
%TO.P,C1,2*%
%TO.N,/XTAL2*%
X119000000Y-112500000D03*
%TD*%
%TO.P,C5,1*%
%TO.N,GND*%
X77000000Y-67500000D03*
%TO.P,C5,2*%
%TO.N,/VCC*%
X79500000Y-67500000D03*
%TD*%
%TO.P,R9,1*%
%TO.N,Net-(Q2-B)*%
X96310000Y-77500000D03*
%TO.P,R9,2*%
%TO.N,/TX3*%
X88690000Y-77500000D03*
%TD*%
%TO.P,C28,1*%
%TO.N,/VCC*%
X166750000Y-146000000D03*
%TO.P,C28,2*%
%TO.N,GND*%
X164250000Y-146000000D03*
%TD*%
%TO.P,C43,1*%
%TO.N,/VCC*%
X177540000Y-75440000D03*
%TO.P,C43,2*%
%TO.N,GND*%
X177540000Y-72940000D03*
%TD*%
D16*
%TO.P,J4,1*%
%TO.N,SW1*%
X53220000Y-61080000D03*
D17*
%TO.P,J4,2*%
%TO.N,SW2*%
X55000000Y-60064000D03*
%TO.P,J4,3*%
%TO.N,SW3*%
X53220000Y-59048000D03*
%TO.P,J4,4*%
%TO.N,SW4*%
X55000000Y-58032000D03*
%TO.P,J4,5*%
%TO.N,/BUS24*%
X53220000Y-57016000D03*
%TO.P,J4,6*%
%TO.N,/BUS14*%
X55000000Y-56000000D03*
%TO.P,J4,7*%
%TO.N,12V*%
X53220000Y-54984000D03*
%TO.P,J4,8*%
%TO.N,GND*%
X55000000Y-53968000D03*
D18*
%TO.P,J4,SH*%
%TO.N,N/C*%
X54110000Y-65650000D03*
X54110000Y-49390000D03*
%TD*%
D25*
%TO.P,U12,1,IN*%
%TO.N,12V*%
X183000000Y-147230000D03*
D26*
%TO.P,U12,2,GND*%
%TO.N,GND*%
X180460000Y-147230000D03*
%TO.P,U12,3,OUT*%
%TO.N,/VCC*%
X177920000Y-147230000D03*
%TD*%
D14*
%TO.P,SW2,1,1*%
%TO.N,GND*%
X214000000Y-103950000D03*
D15*
%TO.P,SW2,2,2*%
%TO.N,/PIN5*%
X214000000Y-106490000D03*
%TD*%
D11*
%TO.P,R22,1*%
%TO.N,GND*%
X204690000Y-88000000D03*
%TO.P,R22,2*%
%TO.N,Net-(U18A--)*%
X204690000Y-80380000D03*
%TD*%
D10*
%TO.P,U18,1*%
%TO.N,Net-(C42-Pad1)*%
X183810000Y-87810000D03*
D11*
%TO.P,U18,2,-*%
%TO.N,Net-(U18A--)*%
X183810000Y-85270000D03*
%TO.P,U18,3,+*%
%TO.N,Net-(U18A-+)*%
X183810000Y-82730000D03*
%TO.P,U18,4,V-*%
%TO.N,/N5V*%
X183810000Y-80190000D03*
%TO.P,U18,5,+*%
%TO.N,GND*%
X176190000Y-80190000D03*
%TO.P,U18,6,-*%
%TO.N,Net-(U18B--)*%
X176190000Y-82730000D03*
%TO.P,U18,7*%
X176190000Y-85270000D03*
%TO.P,U18,8,V+*%
%TO.N,/VCC*%
X176190000Y-87810000D03*
%TD*%
D19*
%TO.P,C24,1*%
%TO.N,/N5V*%
X128794888Y-146000000D03*
D11*
%TO.P,C24,2*%
%TO.N,GND*%
X131294888Y-146000000D03*
%TD*%
D17*
%TO.P,Y1,1,1*%
%TO.N,/XTAL2*%
X125000000Y-112440000D03*
%TO.P,Y1,2,2*%
%TO.N,/XTAL1*%
X125000000Y-107560000D03*
%TD*%
D11*
%TO.P,C26,1*%
%TO.N,Net-(U3-BYPASS)*%
X171067620Y-57000000D03*
%TO.P,C26,2*%
%TO.N,GND*%
X168567620Y-57000000D03*
%TD*%
D14*
%TO.P,SW22,1,A*%
%TO.N,/CUT3*%
X214500000Y-142500000D03*
D15*
%TO.P,SW22,2,B*%
%TO.N,12V*%
X214500000Y-145040000D03*
%TD*%
D10*
%TO.P,C46,1*%
%TO.N,/VCC*%
X171690000Y-86690000D03*
D11*
%TO.P,C46,2*%
%TO.N,GND*%
X169190000Y-86690000D03*
%TD*%
%TO.P,C12,1*%
%TO.N,GND*%
X162250000Y-47500000D03*
%TO.P,C12,2*%
%TO.N,Net-(C12-Pad2)*%
X164750000Y-47500000D03*
%TD*%
D10*
%TO.P,U3,1,GAIN*%
%TO.N,unconnected-(U3-GAIN-Pad1)*%
X183810000Y-57810000D03*
D11*
%TO.P,U3,2,-*%
%TO.N,GND*%
X183810000Y-55270000D03*
%TO.P,U3,3,+*%
%TO.N,/LM1VC*%
X183810000Y-52730000D03*
%TO.P,U3,4,GND*%
%TO.N,GND*%
X183810000Y-50190000D03*
%TO.P,U3,5*%
%TO.N,Net-(C11-Pad1)*%
X176190000Y-50190000D03*
%TO.P,U3,6,V+*%
%TO.N,/VCC*%
X176190000Y-52730000D03*
%TO.P,U3,7,BYPASS*%
%TO.N,Net-(U3-BYPASS)*%
X176190000Y-55270000D03*
%TO.P,U3,8,GAIN*%
%TO.N,unconnected-(U3-GAIN-Pad8)*%
X176190000Y-57810000D03*
%TD*%
%TO.P,C3,1*%
%TO.N,GND*%
X77000000Y-113500000D03*
%TO.P,C3,2*%
%TO.N,/VCC*%
X79500000Y-113500000D03*
%TD*%
D29*
%TO.P,J1,1,Pin_1*%
%TO.N,GND*%
X48827500Y-133000000D03*
D30*
%TO.P,J1,2,Pin_2*%
%TO.N,Net-(J1-Pin_2)*%
X48827500Y-138000000D03*
%TD*%
D31*
%TO.P,C6,1*%
%TO.N,/RST*%
X122500000Y-87294888D03*
D11*
%TO.P,C6,2*%
%TO.N,/VCC*%
X122500000Y-89794888D03*
%TD*%
D19*
%TO.P,C23,1*%
%TO.N,Net-(U8-CAP+)*%
X143294888Y-146000000D03*
D11*
%TO.P,C23,2*%
%TO.N,Net-(U8-CAP-)*%
X145794888Y-146000000D03*
%TD*%
%TO.P,R7,1*%
%TO.N,/VCC*%
X96310000Y-85500000D03*
%TO.P,R7,2*%
%TO.N,Net-(Q2-C)*%
X88690000Y-85500000D03*
%TD*%
%TO.P,R23,1*%
%TO.N,Net-(U18A--)*%
X200190000Y-80380000D03*
%TO.P,R23,2*%
%TO.N,Net-(C42-Pad1)*%
X200190000Y-88000000D03*
%TD*%
D32*
%TO.N,/SW1UF*%
X197000000Y-54000000D03*
%TO.N,/PIN8*%
X127000000Y-81500000D03*
X144500000Y-125500000D03*
X121000000Y-118500000D03*
X141500000Y-125500000D03*
X116500000Y-96000000D03*
X126500000Y-121500000D03*
X219000000Y-118000000D03*
X218500000Y-121000000D03*
%TO.N,GND*%
X44500000Y-55000000D03*
X165000000Y-137000000D03*
X48500000Y-55000000D03*
X168000000Y-140000000D03*
X177000000Y-144500000D03*
X66500000Y-137500000D03*
X174000000Y-144500000D03*
X82500000Y-145000000D03*
X67500000Y-141000000D03*
X78000000Y-145500000D03*
%TO.N,/XTAL2*%
X129873413Y-109126587D03*
%TO.N,/VCC*%
X110500000Y-125500000D03*
X85000000Y-73000000D03*
X104000000Y-98000000D03*
X142500000Y-106000000D03*
X155000000Y-71500000D03*
X143000000Y-97000000D03*
X85000000Y-88500000D03*
X85000000Y-80000000D03*
X208735000Y-65500000D03*
X123000000Y-125500000D03*
X85000000Y-96000000D03*
X187810000Y-65500000D03*
X158500000Y-65500000D03*
X106500000Y-125500000D03*
%TO.N,/N5V*%
X129000000Y-132000000D03*
X179750000Y-84250000D03*
X144500000Y-122000000D03*
%TO.N,Net-(C41-Pad1)*%
X189750000Y-74250000D03*
%TO.N,Net-(U29-FMIN)*%
X59500000Y-136000000D03*
X62013619Y-136366654D03*
%TO.N,Net-(U29-LOUT)*%
X70425000Y-136500000D03*
X72000000Y-136500000D03*
%TO.N,SWR*%
X111500000Y-146000000D03*
D33*
%TO.N,12V*%
X73000000Y-124500000D03*
X196500000Y-143000000D03*
X188000000Y-146000000D03*
D32*
%TO.N,/BUS22*%
X63000000Y-88000000D03*
X66000000Y-88000000D03*
%TO.N,SW1*%
X152500000Y-66000000D03*
X46500000Y-62500000D03*
%TO.N,SW2*%
X56500000Y-100500000D03*
X114500000Y-136000000D03*
X56500000Y-60500000D03*
X56500000Y-80500000D03*
X104000000Y-127500000D03*
X76500000Y-127000000D03*
X74500000Y-129500000D03*
%TO.N,SW4*%
X107500000Y-141500000D03*
X100500000Y-146500000D03*
X57500000Y-58000000D03*
X105500000Y-141500000D03*
X102500000Y-146500000D03*
X57500000Y-78500000D03*
X79000000Y-132500000D03*
X57500000Y-98500000D03*
%TO.N,/PIN21*%
X202000000Y-90500000D03*
X208000000Y-90500000D03*
X162500000Y-109000000D03*
%TO.N,/PIN22*%
X164500000Y-108500000D03*
%TO.N,/PIN28*%
X177000000Y-96500000D03*
%TO.N,/LM1*%
X129000000Y-127500000D03*
X139500000Y-100500000D03*
%TO.N,/PIN4*%
X141500000Y-51500000D03*
%TO.N,/PIN5*%
X144500000Y-104000000D03*
X168000000Y-107500000D03*
X160000000Y-106000000D03*
%TO.N,/PIN6*%
X130500000Y-121500000D03*
X144000000Y-124500000D03*
X139000000Y-124000000D03*
%TO.N,/PIN7*%
X133000000Y-121000000D03*
X137000000Y-121000000D03*
X170500000Y-109000000D03*
%TO.N,/PIN27*%
X153500000Y-69500000D03*
X157500000Y-63000000D03*
%TO.N,/PIN14*%
X150500000Y-96500000D03*
X152000000Y-68000000D03*
X141000000Y-59000000D03*
X138500000Y-92000000D03*
X138500000Y-88500000D03*
X175000000Y-100000000D03*
X134575000Y-98000000D03*
X155500000Y-63000000D03*
%TO.N,/PIN26*%
X142000000Y-101500000D03*
X140500000Y-103500000D03*
X127500000Y-120000000D03*
X123000000Y-117500000D03*
%TO.N,/PIN24*%
X201500000Y-94000000D03*
%TO.N,/PIN25*%
X128000000Y-119000000D03*
X125000000Y-117000000D03*
%TO.N,/PIN23*%
X205000000Y-92000000D03*
%TO.N,/BUS12*%
X66500000Y-96000000D03*
X63500000Y-96500000D03*
%TO.N,/BUS23*%
X66500000Y-76500000D03*
X63500000Y-76500000D03*
%TO.N,/PIN25V3*%
X74500000Y-135000000D03*
X70000000Y-135000000D03*
%TO.N,/3.3V*%
X99500000Y-149200000D03*
X70425000Y-137925000D03*
X73500000Y-138000000D03*
%TO.N,/PIN26V3*%
X70000000Y-134000000D03*
X72000000Y-134000000D03*
%TO.N,/BUS13*%
X67000000Y-68000000D03*
X64000000Y-68000000D03*
%TO.N,/BUS14*%
X58500000Y-54000000D03*
X60000000Y-49000000D03*
%TO.N,Net-(Q1-C)*%
X86500000Y-101000000D03*
%TO.N,Net-(Q2-C)*%
X86270000Y-83270000D03*
%TO.N,/TX2*%
X100500000Y-88500000D03*
X86500000Y-98500000D03*
X101500000Y-81500000D03*
%TO.N,/RX3*%
X91000000Y-78500000D03*
X90500000Y-83260000D03*
X91000000Y-74425000D03*
X109000000Y-74000000D03*
%TO.N,/TX3*%
X99500000Y-75000000D03*
X86000000Y-78190000D03*
%TO.N,/RX4*%
X99500000Y-58500000D03*
X86330000Y-57050000D03*
%TO.N,/TX4*%
X98500000Y-55000000D03*
X86500000Y-53450000D03*
%TO.N,/PIN13*%
X106000000Y-77500000D03*
X107500000Y-89000000D03*
%TO.N,/PIN12*%
X117500000Y-86000000D03*
X121000000Y-95000000D03*
X108000000Y-74000000D03*
%TO.N,SW3*%
X75500000Y-123000000D03*
X48500000Y-101000000D03*
X105500000Y-126000000D03*
X64500000Y-122500000D03*
X114500000Y-132500000D03*
X47500000Y-60500000D03*
X47500000Y-62000000D03*
X47500000Y-81000000D03*
X47500000Y-82500000D03*
X48500000Y-103000000D03*
%TD*%
D34*
%TO.N,Net-(10K1-Pad2)*%
X196250000Y-48000000D02*
X196250000Y-50976040D01*
X196250000Y-50976040D02*
X194226040Y-53000000D01*
X194226040Y-53000000D02*
X193625000Y-53000000D01*
%TO.N,/SW1UF*%
X190940000Y-79690000D02*
X192810000Y-79690000D01*
X197500000Y-75000000D02*
X197500000Y-54500000D01*
X197500000Y-54500000D02*
X197000000Y-54000000D01*
X192810000Y-79690000D02*
X197500000Y-75000000D01*
%TO.N,/PIN8*%
X141500000Y-125500000D02*
X136500000Y-125500000D01*
X127000000Y-81500000D02*
X127760000Y-82260000D01*
X204000000Y-125500000D02*
X169500000Y-125500000D01*
X204500000Y-125000000D02*
X204000000Y-125500000D01*
X127760000Y-82260000D02*
X131760000Y-82260000D01*
X109500000Y-102500000D02*
X115000000Y-97000000D01*
X115000000Y-97000000D02*
X115500000Y-97000000D01*
X115500000Y-97000000D02*
X116500000Y-96000000D01*
X169500000Y-125500000D02*
X150500000Y-125500000D01*
X220000000Y-117000000D02*
X219000000Y-118000000D01*
X219000000Y-113500000D02*
X220000000Y-114500000D01*
X128000000Y-121500000D02*
X126500000Y-121500000D01*
X136500000Y-125500000D02*
X135500000Y-124500000D01*
X109500000Y-116000000D02*
X109500000Y-102500000D01*
X150500000Y-125500000D02*
X144500000Y-125500000D01*
X121000000Y-118500000D02*
X118500000Y-116000000D01*
X208500000Y-121000000D02*
X204500000Y-125000000D01*
X135500000Y-124500000D02*
X131000000Y-124500000D01*
X220000000Y-114500000D02*
X220000000Y-117000000D01*
X218500000Y-121000000D02*
X208500000Y-121000000D01*
X219000000Y-111225000D02*
X219000000Y-113500000D01*
X118500000Y-116000000D02*
X109500000Y-116000000D01*
X131000000Y-124500000D02*
X130000000Y-123500000D01*
X130000000Y-123500000D02*
X128000000Y-121500000D01*
%TO.N,GND*%
X44500000Y-55000000D02*
X48500000Y-55000000D01*
D35*
X162012755Y-134000000D02*
X164250000Y-136237245D01*
D34*
X68112500Y-137500000D02*
X66500000Y-137500000D01*
D35*
X180460000Y-147230000D02*
X177730000Y-144500000D01*
D34*
X68500000Y-148500000D02*
X75000000Y-148500000D01*
D35*
X164250000Y-136237245D02*
X164250000Y-136250000D01*
D34*
X206250000Y-135250000D02*
X206500000Y-135000000D01*
D35*
X206500000Y-135000000D02*
X207275000Y-135000000D01*
X180460000Y-143040000D02*
X180460000Y-147230000D01*
D34*
X63887500Y-136500000D02*
X65500000Y-136500000D01*
D35*
X172500000Y-144500000D02*
X168000000Y-140000000D01*
X164250000Y-136250000D02*
X164250000Y-146000000D01*
X177730000Y-144500000D02*
X177000000Y-144500000D01*
X194225000Y-135250000D02*
X186475000Y-143000000D01*
D34*
X67500000Y-141000000D02*
X68500000Y-142000000D01*
X65500000Y-136500000D02*
X66500000Y-137500000D01*
D35*
X186475000Y-143000000D02*
X180500000Y-143000000D01*
X165000000Y-137000000D02*
X164250000Y-136250000D01*
D34*
X180500000Y-143000000D02*
X180460000Y-143040000D01*
D35*
X207275000Y-135000000D02*
X209000000Y-136725000D01*
D34*
X63887500Y-137500000D02*
X66500000Y-137500000D01*
X75000000Y-148500000D02*
X78000000Y-145500000D01*
X68500000Y-142000000D02*
X68500000Y-148500000D01*
D35*
X174000000Y-144500000D02*
X172500000Y-144500000D01*
X194225000Y-135250000D02*
X206250000Y-135250000D01*
D34*
X82500000Y-145000000D02*
X82500000Y-147230000D01*
%TO.N,/XTAL2*%
X125000000Y-112440000D02*
X126560000Y-112440000D01*
X126560000Y-112440000D02*
X129873413Y-109126587D01*
X119000000Y-112500000D02*
X124940000Y-112500000D01*
X124940000Y-112500000D02*
X125000000Y-112440000D01*
%TO.N,/XTAL1*%
X125000000Y-107560000D02*
X129120000Y-107560000D01*
X129120000Y-107560000D02*
X131760000Y-110200000D01*
X124940000Y-107500000D02*
X125000000Y-107560000D01*
X119000000Y-107500000D02*
X124940000Y-107500000D01*
D35*
%TO.N,/VCC*%
X74690000Y-86440000D02*
X74690000Y-85810000D01*
X143000000Y-130000000D02*
X143000000Y-128000000D01*
X104000000Y-98000000D02*
X104000000Y-91540000D01*
X169500000Y-96000000D02*
X158000000Y-96000000D01*
X220275000Y-111225000D02*
X222000000Y-109500000D01*
X209690000Y-94725000D02*
X214275000Y-94725000D01*
X79750000Y-91500000D02*
X75875000Y-87625000D01*
X209690000Y-98225000D02*
X209690000Y-94725000D01*
X195810000Y-57500000D02*
X187810000Y-65500000D01*
X222000000Y-109500000D02*
X222000000Y-100500000D01*
X156500000Y-94500000D02*
X156500000Y-86500000D01*
X102000000Y-122000000D02*
X102000000Y-108500000D01*
X221190000Y-94725000D02*
X221190000Y-92810000D01*
X161500000Y-148500000D02*
X147000000Y-134000000D01*
X98500000Y-103500000D02*
X102000000Y-107000000D01*
X74000000Y-89500000D02*
X74000000Y-96000000D01*
X85000000Y-122000000D02*
X81000000Y-122000000D01*
X94000000Y-62000000D02*
X94000000Y-59500000D01*
X110500000Y-125500000D02*
X110500000Y-147540000D01*
X143000000Y-128000000D02*
X138000000Y-128000000D01*
X102000000Y-107000000D02*
X102000000Y-105190000D01*
X147000000Y-64480000D02*
X143020000Y-64480000D01*
X76285000Y-108715000D02*
X76285000Y-108215000D01*
X102000000Y-108500000D02*
X102000000Y-107000000D01*
X142500000Y-129500000D02*
X142500000Y-106000000D01*
X96310000Y-85500000D02*
X93310000Y-88500000D01*
X104000000Y-106500000D02*
X104000000Y-98000000D01*
X174000000Y-78980000D02*
X177540000Y-75440000D01*
X143000000Y-61000000D02*
X143000000Y-64500000D01*
X74000000Y-96000000D02*
X85000000Y-96000000D01*
X150000000Y-61000000D02*
X143000000Y-61000000D01*
X97000000Y-72500000D02*
X96810000Y-72310000D01*
X94673500Y-147540000D02*
X91420000Y-144286500D01*
X75875000Y-87625000D02*
X74690000Y-86440000D01*
X221190000Y-92810000D02*
X221250000Y-92750000D01*
X83000000Y-71000000D02*
X73500000Y-71000000D01*
X85000000Y-73000000D02*
X96500000Y-73000000D01*
X74690000Y-62690000D02*
X74750000Y-62750000D01*
X227500000Y-64000000D02*
X210235000Y-64000000D01*
X173000000Y-92500000D02*
X169500000Y-96000000D01*
X147000000Y-134000000D02*
X142500000Y-129500000D01*
X166750000Y-146000000D02*
X166750000Y-136762755D01*
X79500000Y-111430000D02*
X76285000Y-108215000D01*
X85000000Y-73000000D02*
X83000000Y-71000000D01*
X143160000Y-87340000D02*
X143000000Y-87500000D01*
X171690000Y-86690000D02*
X171690000Y-91190000D01*
X169512755Y-134000000D02*
X169512755Y-138822755D01*
X220000000Y-111225000D02*
X220275000Y-111225000D01*
X214275000Y-94725000D02*
X217000000Y-92000000D01*
X74750000Y-67750000D02*
X74750000Y-62750000D01*
X74690000Y-61070000D02*
X74690000Y-62690000D01*
X75875000Y-87625000D02*
X74000000Y-89500000D01*
X179500000Y-65500000D02*
X158500000Y-65500000D01*
X171690000Y-91190000D02*
X173000000Y-92500000D01*
X106500000Y-125500000D02*
X103000000Y-122000000D01*
X96810000Y-64810000D02*
X94000000Y-62000000D01*
X81000000Y-122000000D02*
X72000000Y-113000000D01*
X94000000Y-59500000D02*
X94360000Y-59500000D01*
X138000000Y-128000000D02*
X135500000Y-125500000D01*
X154500000Y-72000000D02*
X155000000Y-71500000D01*
X76285000Y-108215000D02*
X74880000Y-106810000D01*
X221250000Y-92750000D02*
X227500000Y-86500000D01*
X175000000Y-90500000D02*
X173000000Y-92500000D01*
X210235000Y-64000000D02*
X208735000Y-65500000D01*
X175000000Y-90500000D02*
X174000000Y-89500000D01*
X74750000Y-62750000D02*
X79500000Y-67500000D01*
X85040000Y-147230000D02*
X88476500Y-147230000D01*
X217000000Y-92000000D02*
X217750000Y-92750000D01*
X79500000Y-113500000D02*
X79500000Y-111430000D01*
X102000000Y-108500000D02*
X104000000Y-106500000D01*
X91000000Y-79500000D02*
X85500000Y-79500000D01*
X217750000Y-92750000D02*
X221250000Y-92750000D01*
X154500000Y-65500000D02*
X150000000Y-61000000D01*
X222000000Y-100500000D02*
X221190000Y-99690000D01*
X227500000Y-86500000D02*
X227500000Y-64000000D01*
X158500000Y-65500000D02*
X154500000Y-65500000D01*
X94360000Y-59500000D02*
X96810000Y-57050000D01*
X102000000Y-105190000D02*
X96310000Y-99500000D01*
X174000000Y-89500000D02*
X174000000Y-78980000D01*
X187810000Y-65500000D02*
X179500000Y-65500000D01*
X85500000Y-79500000D02*
X85000000Y-80000000D01*
X135500000Y-125500000D02*
X123000000Y-125500000D01*
X96310000Y-81450000D02*
X92950000Y-81450000D01*
X143000000Y-97000000D02*
X143000000Y-87500000D01*
X147000000Y-134000000D02*
X143000000Y-130000000D01*
X72000000Y-113000000D02*
X76285000Y-108715000D01*
X96810000Y-65000000D02*
X96810000Y-64810000D01*
X92950000Y-81450000D02*
X91000000Y-79500000D01*
X221190000Y-99690000D02*
X221190000Y-98225000D01*
X154500000Y-84500000D02*
X154500000Y-72000000D01*
X72500000Y-70000000D02*
X74750000Y-67750000D01*
X103000000Y-122000000D02*
X102000000Y-122000000D01*
X176190000Y-89310000D02*
X175000000Y-90500000D01*
X96500000Y-73000000D02*
X97000000Y-72500000D01*
X85000000Y-96000000D02*
X85000000Y-122000000D01*
X138000000Y-134000000D02*
X138000000Y-128000000D01*
X164250000Y-148500000D02*
X161500000Y-148500000D01*
X73500000Y-71000000D02*
X72500000Y-70000000D01*
X169512755Y-138822755D02*
X177920000Y-147230000D01*
X156500000Y-86500000D02*
X154500000Y-84500000D01*
X143020000Y-64480000D02*
X143000000Y-64500000D01*
X179500000Y-56040000D02*
X179500000Y-65500000D01*
X221190000Y-98225000D02*
X221190000Y-94725000D01*
X158000000Y-96000000D02*
X156500000Y-94500000D01*
X133190000Y-138810000D02*
X138000000Y-134000000D01*
X110500000Y-147540000D02*
X94673500Y-147540000D01*
X88476500Y-147230000D02*
X91420000Y-144286500D01*
X116690000Y-147540000D02*
X110500000Y-147540000D01*
X176190000Y-52730000D02*
X179500000Y-56040000D01*
X147000000Y-87340000D02*
X143160000Y-87340000D01*
X176190000Y-87810000D02*
X176190000Y-89310000D01*
X166750000Y-136762755D02*
X169512755Y-134000000D01*
X143000000Y-87500000D02*
X143000000Y-64500000D01*
X96310000Y-103500000D02*
X98500000Y-103500000D01*
X96810000Y-72310000D02*
X96810000Y-65000000D01*
X96810000Y-65000000D02*
X96810000Y-61100000D01*
X93310000Y-88500000D02*
X85000000Y-88500000D01*
X166750000Y-146000000D02*
X164250000Y-148500000D01*
X102000000Y-122000000D02*
X85000000Y-122000000D01*
D34*
%TO.N,/RST*%
X122500000Y-85000000D02*
X130000000Y-85000000D01*
X122500000Y-87294888D02*
X122500000Y-85000000D01*
X130200000Y-84800000D02*
X131760000Y-84800000D01*
X130000000Y-85000000D02*
X130200000Y-84800000D01*
X122500000Y-85000000D02*
X122500000Y-82810000D01*
%TO.N,Net-(C11-Pad1)*%
X176190000Y-45500000D02*
X173500000Y-48190000D01*
X173500000Y-51500000D02*
X174880000Y-51500000D01*
X171000000Y-51500000D02*
X173500000Y-51500000D01*
X173500000Y-48190000D02*
X173500000Y-51500000D01*
X174880000Y-51500000D02*
X176190000Y-50190000D01*
%TO.N,/CUT1*%
X159000000Y-54080000D02*
X161580000Y-51500000D01*
X161580000Y-51500000D02*
X168500000Y-51500000D01*
%TO.N,Net-(MK2-+)*%
X191500000Y-50250000D02*
X191500000Y-54000000D01*
X188190000Y-54500000D02*
X188190000Y-52575000D01*
X188190000Y-52575000D02*
X189000000Y-51765000D01*
X188190000Y-57500000D02*
X188190000Y-54500000D01*
X188690000Y-54000000D02*
X188190000Y-54500000D01*
X193750000Y-48000000D02*
X191500000Y-50250000D01*
X191500000Y-54000000D02*
X188690000Y-54000000D01*
%TO.N,Net-(U8-CAP-)*%
X145794888Y-136174888D02*
X140810000Y-131190000D01*
X145794888Y-146000000D02*
X145794888Y-136174888D01*
%TO.N,Net-(U8-CAP+)*%
X143294888Y-138754888D02*
X140810000Y-136270000D01*
X143294888Y-146000000D02*
X143294888Y-138754888D01*
%TO.N,/N5V*%
X179750000Y-84250000D02*
X178000000Y-86000000D01*
X181690000Y-79310000D02*
X178000000Y-83000000D01*
X178000000Y-90000000D02*
X146000000Y-122000000D01*
X128794888Y-146000000D02*
X127000000Y-146000000D01*
X128794888Y-146000000D02*
X128794888Y-135585112D01*
X127000000Y-146000000D02*
X126500000Y-145500000D01*
X126500000Y-134490000D02*
X124310000Y-132300000D01*
X126510000Y-134490000D02*
X126500000Y-134490000D01*
X126500000Y-145500000D02*
X126500000Y-134490000D01*
X178000000Y-83000000D02*
X178000000Y-86000000D01*
X146000000Y-122000000D02*
X144500000Y-122000000D01*
X183810000Y-80190000D02*
X179750000Y-84250000D01*
X181690000Y-75500000D02*
X181690000Y-79310000D01*
X178000000Y-86000000D02*
X178000000Y-90000000D01*
X129000000Y-132000000D02*
X126510000Y-134490000D01*
X128794888Y-135585112D02*
X133190000Y-131190000D01*
%TO.N,Net-(U3-BYPASS)*%
X171067620Y-57000000D02*
X174460000Y-57000000D01*
X174460000Y-57000000D02*
X176190000Y-55270000D01*
%TO.N,Net-(C41-Pad1)*%
X188440000Y-75560000D02*
X189750000Y-74250000D01*
X190810000Y-73190000D02*
X194500000Y-73190000D01*
X189750000Y-74250000D02*
X190810000Y-73190000D01*
X188440000Y-79690000D02*
X188440000Y-75560000D01*
%TO.N,Net-(C42-Pad2)*%
X164000000Y-80000000D02*
X169697621Y-80000000D01*
X163690000Y-79690000D02*
X164000000Y-80000000D01*
X169697621Y-80000000D02*
X171507621Y-78190000D01*
X158690000Y-85310000D02*
X164000000Y-80000000D01*
X163690000Y-77690000D02*
X163690000Y-79690000D01*
%TO.N,Net-(C42-Pad1)*%
X186500000Y-92500000D02*
X183810000Y-89810000D01*
X183810000Y-89810000D02*
X183810000Y-87810000D01*
X200190000Y-88000000D02*
X195690000Y-92500000D01*
X195690000Y-92500000D02*
X186500000Y-92500000D01*
%TO.N,Net-(U29-FMIN)*%
X62646965Y-137000000D02*
X62013619Y-136366654D01*
X59500000Y-136000000D02*
X59000000Y-136500000D01*
X59750000Y-143250000D02*
X59750000Y-145500000D01*
X63887500Y-137000000D02*
X62646965Y-137000000D01*
X59000000Y-136500000D02*
X59000000Y-142500000D01*
X59000000Y-142500000D02*
X59750000Y-143250000D01*
%TO.N,Net-(U29-LOUT)*%
X72000000Y-143500000D02*
X71000000Y-144500000D01*
X68112500Y-136500000D02*
X70425000Y-136500000D01*
X72000000Y-136500000D02*
X72000000Y-143500000D01*
%TO.N,SWR*%
X120040000Y-147540000D02*
X118500000Y-146000000D01*
X118500000Y-146000000D02*
X118424000Y-146076000D01*
X118424000Y-146076000D02*
X111576000Y-146076000D01*
X124310000Y-147540000D02*
X120040000Y-147540000D01*
X111576000Y-146076000D02*
X111500000Y-146000000D01*
D35*
%TO.N,12V*%
X54000000Y-51500000D02*
X65000000Y-51500000D01*
D36*
X197500000Y-144000000D02*
X196500000Y-143000000D01*
D35*
X53110000Y-95594000D02*
X53110000Y-92890000D01*
X53220000Y-52280000D02*
X54000000Y-51500000D01*
D36*
X184230000Y-146000000D02*
X183000000Y-147230000D01*
D35*
X53220000Y-72780000D02*
X53500000Y-72500000D01*
D36*
X188000000Y-146000000D02*
X188500000Y-145500000D01*
X214500000Y-145040000D02*
X208540000Y-145040000D01*
X188000000Y-146000000D02*
X184230000Y-146000000D01*
X208500000Y-144000000D02*
X197500000Y-144000000D01*
D35*
X53220000Y-54984000D02*
X53220000Y-52280000D01*
X65000000Y-116500000D02*
X65000000Y-92000000D01*
D36*
X208500000Y-145000000D02*
X208500000Y-144000000D01*
D35*
X54000000Y-92000000D02*
X65000000Y-92000000D01*
X53110000Y-92890000D02*
X54000000Y-92000000D01*
X65000000Y-72500000D02*
X65000000Y-92000000D01*
D34*
X208540000Y-145040000D02*
X208500000Y-145000000D01*
D35*
X65000000Y-51500000D02*
X65000000Y-72500000D01*
X73000000Y-124500000D02*
X65000000Y-116500000D01*
X53500000Y-72500000D02*
X65000000Y-72500000D01*
X53220000Y-75516000D02*
X53220000Y-72780000D01*
D34*
%TO.N,/BUS22*%
X48500000Y-88000000D02*
X63000000Y-88000000D01*
X48500000Y-94500000D02*
X48500000Y-88000000D01*
X76500000Y-102650000D02*
X76500000Y-98000000D01*
X53110000Y-97626000D02*
X51626000Y-97626000D01*
X73000000Y-97500000D02*
X67500000Y-92000000D01*
X67500000Y-88000000D02*
X66000000Y-88000000D01*
X76500000Y-98000000D02*
X76000000Y-97500000D01*
X51626000Y-97626000D02*
X48500000Y-94500000D01*
X76000000Y-97500000D02*
X73000000Y-97500000D01*
X67500000Y-92000000D02*
X67500000Y-88000000D01*
X74880000Y-104270000D02*
X76500000Y-102650000D01*
%TO.N,SW1*%
X46000000Y-101500000D02*
X46500000Y-101000000D01*
X46580000Y-61080000D02*
X53220000Y-61080000D01*
X46190000Y-101690000D02*
X46000000Y-101500000D01*
X158690000Y-77690000D02*
X158690000Y-72190000D01*
X46888000Y-81612000D02*
X46500000Y-82000000D01*
X53110000Y-101690000D02*
X46190000Y-101690000D01*
X46500000Y-62500000D02*
X46500000Y-61160000D01*
X53220000Y-81612000D02*
X46888000Y-81612000D01*
X46500000Y-101000000D02*
X46500000Y-82000000D01*
X158690000Y-72190000D02*
X152500000Y-66000000D01*
X46500000Y-61160000D02*
X46580000Y-61080000D01*
X46500000Y-82000000D02*
X46500000Y-62500000D01*
%TO.N,SW2*%
X104000000Y-127500000D02*
X103000000Y-126500000D01*
X54890000Y-100674000D02*
X56326000Y-100674000D01*
X56500000Y-112500000D02*
X67500000Y-123500000D01*
X114500000Y-136000000D02*
X114500000Y-140270000D01*
X56500000Y-109000000D02*
X56500000Y-112500000D01*
X56326000Y-100674000D02*
X56500000Y-100500000D01*
X67500000Y-123500000D02*
X73500000Y-129500000D01*
X114500000Y-140270000D02*
X116690000Y-142460000D01*
X56064000Y-60064000D02*
X56500000Y-60500000D01*
X55000000Y-60064000D02*
X56064000Y-60064000D01*
X55000000Y-80596000D02*
X56404000Y-80596000D01*
X56404000Y-80596000D02*
X56500000Y-80500000D01*
X73500000Y-129500000D02*
X74500000Y-129500000D01*
X77000000Y-126500000D02*
X76500000Y-127000000D01*
X56500000Y-100500000D02*
X56500000Y-109000000D01*
X103000000Y-126500000D02*
X77000000Y-126500000D01*
%TO.N,SW4*%
X57436000Y-78564000D02*
X57500000Y-78500000D01*
X105500000Y-141500000D02*
X107500000Y-141500000D01*
X57500000Y-109000000D02*
X57500000Y-112000000D01*
X55000000Y-58032000D02*
X57468000Y-58032000D01*
X74000000Y-128500000D02*
X75000000Y-128500000D01*
X55000000Y-78564000D02*
X57436000Y-78564000D01*
X54890000Y-98642000D02*
X57358000Y-98642000D01*
X75000000Y-128500000D02*
X79000000Y-132500000D01*
X57500000Y-98500000D02*
X57500000Y-109000000D01*
X100500000Y-146500000D02*
X102500000Y-146500000D01*
X57358000Y-98642000D02*
X57500000Y-98500000D01*
X57468000Y-58032000D02*
X57500000Y-58000000D01*
X57500000Y-112000000D02*
X74000000Y-128500000D01*
%TO.N,/CUT2*%
X163420000Y-56620000D02*
X163500000Y-56540000D01*
X159000000Y-56620000D02*
X163420000Y-56620000D01*
%TO.N,/PIN21*%
X197275000Y-94725000D02*
X201500000Y-90500000D01*
X176775000Y-94725000D02*
X197275000Y-94725000D01*
X208000000Y-90500000D02*
X211500000Y-87000000D01*
X222500000Y-74500000D02*
X223000000Y-75000000D01*
X176775000Y-94725000D02*
X162500000Y-109000000D01*
X221500000Y-76500000D02*
X221500000Y-78225000D01*
X201500000Y-90500000D02*
X202000000Y-90500000D01*
X211500000Y-87000000D02*
X211500000Y-74500000D01*
X211500000Y-74500000D02*
X222500000Y-74500000D01*
X223000000Y-75000000D02*
X221500000Y-76500000D01*
%TO.N,/PIN22*%
X219725000Y-86225000D02*
X221500000Y-86225000D01*
X174775000Y-98225000D02*
X174500000Y-98500000D01*
X214500000Y-91000000D02*
X218500000Y-91000000D01*
X174500000Y-98500000D02*
X203000000Y-98500000D01*
X218500000Y-91000000D02*
X219000000Y-90500000D01*
X174500000Y-98500000D02*
X164500000Y-108500000D01*
X214000000Y-90500000D02*
X214500000Y-91000000D01*
X219000000Y-85500000D02*
X219725000Y-86225000D01*
X203000000Y-98500000D02*
X211000000Y-90500000D01*
X219000000Y-90500000D02*
X219000000Y-85500000D01*
X211000000Y-90500000D02*
X214000000Y-90500000D01*
%TO.N,Net-(U18A-+)*%
X183810000Y-82730000D02*
X185540000Y-81000000D01*
X186500000Y-81000000D02*
X186500000Y-80000000D01*
X185540000Y-81000000D02*
X186500000Y-81000000D01*
X186880000Y-79620000D02*
X186880000Y-73190000D01*
X186500000Y-80000000D02*
X186880000Y-79620000D01*
%TO.N,Net-(U18A--)*%
X202500000Y-80380000D02*
X202500000Y-84000000D01*
X202000000Y-84500000D02*
X200000000Y-82500000D01*
X204690000Y-80380000D02*
X202500000Y-80380000D01*
X202500000Y-80380000D02*
X200190000Y-80380000D01*
X200000000Y-82500000D02*
X186580000Y-82500000D01*
X202500000Y-84000000D02*
X202000000Y-84500000D01*
X186580000Y-82500000D02*
X183810000Y-85270000D01*
%TO.N,/PIN28*%
X213775000Y-86225000D02*
X216500000Y-86225000D01*
X203500000Y-96500000D02*
X213775000Y-86225000D01*
X177000000Y-96500000D02*
X203500000Y-96500000D01*
%TO.N,/LM1*%
X121500000Y-128000000D02*
X121500000Y-139650000D01*
X200000000Y-49920000D02*
X198000000Y-47920000D01*
X198000000Y-47920000D02*
X198000000Y-42000000D01*
X128500000Y-128000000D02*
X121500000Y-128000000D01*
X121500000Y-139650000D02*
X124310000Y-142460000D01*
X147500000Y-48500000D02*
X139500000Y-56500000D01*
X129000000Y-127500000D02*
X128500000Y-128000000D01*
X198000000Y-42000000D02*
X154000000Y-42000000D01*
X154000000Y-42000000D02*
X147500000Y-48500000D01*
X139500000Y-56500000D02*
X139500000Y-100500000D01*
%TO.N,/PIN4*%
X126500000Y-66840000D02*
X131760000Y-72100000D01*
X126500000Y-66500000D02*
X126500000Y-66840000D01*
X141500000Y-51500000D02*
X126500000Y-66500000D01*
%TO.N,/PIN5*%
X214000000Y-106490000D02*
X212990000Y-107500000D01*
X160000000Y-106000000D02*
X150000000Y-116000000D01*
X212990000Y-107500000D02*
X199500000Y-107500000D01*
X150000000Y-116000000D02*
X144500000Y-116000000D01*
X199500000Y-107500000D02*
X168000000Y-107500000D01*
X144500000Y-116000000D02*
X144500000Y-104000000D01*
%TO.N,/PIN6*%
X139000000Y-124000000D02*
X133000000Y-124000000D01*
X219490000Y-119500000D02*
X208500000Y-119500000D01*
X203500000Y-124500000D02*
X144000000Y-124500000D01*
X208500000Y-119500000D02*
X203500000Y-124500000D01*
X224000000Y-114990000D02*
X219490000Y-119500000D01*
X133000000Y-124000000D02*
X130500000Y-121500000D01*
%TO.N,/PIN7*%
X214500000Y-114765000D02*
X208735000Y-109000000D01*
X137000000Y-121000000D02*
X133000000Y-121000000D01*
X208735000Y-109000000D02*
X170500000Y-109000000D01*
%TO.N,/PIN27*%
X147000000Y-97500000D02*
X153500000Y-97500000D01*
X157500000Y-59500000D02*
X155500000Y-57500000D01*
X153500000Y-97500000D02*
X154000000Y-97000000D01*
X153500000Y-93000000D02*
X152500000Y-92000000D01*
X154000000Y-93500000D02*
X153500000Y-93000000D01*
X152500000Y-92000000D02*
X152500000Y-70500000D01*
X152500000Y-70500000D02*
X153500000Y-69500000D01*
X155500000Y-55040000D02*
X159000000Y-51540000D01*
X155500000Y-57500000D02*
X155500000Y-55040000D01*
X154000000Y-97000000D02*
X154000000Y-93500000D01*
X157500000Y-63000000D02*
X157500000Y-59500000D01*
%TO.N,/PIN14*%
X215500000Y-101500000D02*
X176500000Y-101500000D01*
X134575000Y-98000000D02*
X134075000Y-97500000D01*
X150500000Y-57500000D02*
X142500000Y-57500000D01*
X217735000Y-105000000D02*
X216500000Y-105000000D01*
X155500000Y-63000000D02*
X155500000Y-62500000D01*
X216500000Y-102500000D02*
X215500000Y-101500000D01*
X219500000Y-106765000D02*
X217735000Y-105000000D01*
X150500000Y-69500000D02*
X152000000Y-68000000D01*
X155500000Y-62500000D02*
X150500000Y-57500000D01*
X134075000Y-97500000D02*
X131760000Y-97500000D01*
X142500000Y-57500000D02*
X141000000Y-59000000D01*
X150500000Y-96500000D02*
X150500000Y-69500000D01*
X176500000Y-101500000D02*
X175000000Y-100000000D01*
X216500000Y-105000000D02*
X216500000Y-102500000D01*
X138500000Y-88500000D02*
X138500000Y-92000000D01*
D36*
%TO.N,/CUT3*%
X210500000Y-142500000D02*
X210500000Y-140765000D01*
X210500000Y-142500000D02*
X214500000Y-142500000D01*
X210500000Y-140765000D02*
X209000000Y-139265000D01*
D34*
X210420000Y-142420000D02*
X210500000Y-142500000D01*
%TO.N,/PIN1*%
X119000000Y-127000000D02*
X128000000Y-118000000D01*
X119000000Y-132530000D02*
X119000000Y-127000000D01*
X137500000Y-115500000D02*
X137500000Y-71000000D01*
X135000000Y-118000000D02*
X137500000Y-115500000D01*
X116690000Y-134840000D02*
X119000000Y-132530000D01*
X131760000Y-65260000D02*
X131760000Y-64480000D01*
X128000000Y-118000000D02*
X135000000Y-118000000D01*
X137500000Y-71000000D02*
X131760000Y-65260000D01*
%TO.N,/PIN26*%
X101580000Y-136666500D02*
X100000000Y-135086500D01*
X108000000Y-126000000D02*
X108000000Y-122500000D01*
X135500000Y-120000000D02*
X139500000Y-116000000D01*
X108000000Y-122500000D02*
X118000000Y-122500000D01*
X118000000Y-122500000D02*
X123000000Y-117500000D01*
X100000000Y-135086500D02*
X100000000Y-130000000D01*
X139500000Y-104500000D02*
X140500000Y-103500000D01*
X100000000Y-130000000D02*
X104000000Y-130000000D01*
X139500000Y-116000000D02*
X139500000Y-104500000D01*
X143460000Y-100040000D02*
X147000000Y-100040000D01*
X127500000Y-120000000D02*
X135500000Y-120000000D01*
X104000000Y-130000000D02*
X108000000Y-126000000D01*
X142000000Y-101500000D02*
X143460000Y-100040000D01*
%TO.N,/PIN24*%
X203500000Y-92000000D02*
X201500000Y-94000000D01*
X208000000Y-69500000D02*
X208000000Y-87500000D01*
X208000000Y-87500000D02*
X203500000Y-92000000D01*
X223080000Y-72225000D02*
X219355000Y-68500000D01*
X215000000Y-68500000D02*
X209000000Y-68500000D01*
X209000000Y-68500000D02*
X208000000Y-69500000D01*
X219355000Y-68500000D02*
X215000000Y-68500000D01*
%TO.N,/PIN25*%
X138500000Y-115500000D02*
X138500000Y-103500000D01*
X101580000Y-134126500D02*
X109000000Y-126706500D01*
X139920000Y-102580000D02*
X147000000Y-102580000D01*
X138500000Y-103500000D02*
X139000000Y-103500000D01*
X139000000Y-103500000D02*
X139920000Y-102580000D01*
X109000000Y-123500000D02*
X118000000Y-123500000D01*
X109000000Y-126706500D02*
X109000000Y-123500000D01*
X118000000Y-123500000D02*
X124500000Y-117000000D01*
X128000000Y-119000000D02*
X135000000Y-119000000D01*
X124500000Y-117000000D02*
X125000000Y-117000000D01*
X135000000Y-119000000D02*
X138500000Y-115500000D01*
%TO.N,/PIN3*%
X135500000Y-73300000D02*
X131760000Y-69560000D01*
X127000000Y-116000000D02*
X133500000Y-116000000D01*
X134000000Y-115500000D02*
X135500000Y-115500000D01*
X116690000Y-129760000D02*
X116690000Y-126310000D01*
X116690000Y-126310000D02*
X127000000Y-116000000D01*
X135500000Y-115500000D02*
X135500000Y-73300000D01*
X133500000Y-116000000D02*
X134000000Y-115500000D01*
%TO.N,/PIN23*%
X209000000Y-69500000D02*
X209000000Y-88000000D01*
X209000000Y-88000000D02*
X205000000Y-92000000D01*
X217815000Y-69500000D02*
X209000000Y-69500000D01*
X220540000Y-72225000D02*
X217815000Y-69500000D01*
%TO.N,/BUS12*%
X54890000Y-96610000D02*
X63390000Y-96610000D01*
X63390000Y-96610000D02*
X63500000Y-96500000D01*
X66500000Y-96000000D02*
X67500000Y-96000000D01*
X74880000Y-101730000D02*
X73230000Y-101730000D01*
X73230000Y-101730000D02*
X67500000Y-96000000D01*
%TO.N,/PIN2*%
X135000000Y-117000000D02*
X136500000Y-115500000D01*
X135500000Y-71500000D02*
X135500000Y-70760000D01*
X118000000Y-126500000D02*
X127500000Y-117000000D01*
X118000000Y-130990000D02*
X118000000Y-126500000D01*
X135500000Y-70760000D02*
X131760000Y-67020000D01*
X116690000Y-132300000D02*
X118000000Y-130990000D01*
X136500000Y-72500000D02*
X135500000Y-71500000D01*
X127500000Y-117000000D02*
X135000000Y-117000000D01*
X136500000Y-115500000D02*
X136500000Y-72500000D01*
%TO.N,/BUS23*%
X63468000Y-76532000D02*
X63500000Y-76500000D01*
X55000000Y-76532000D02*
X63468000Y-76532000D01*
X68000000Y-76500000D02*
X68000000Y-76580000D01*
X68000000Y-76580000D02*
X74690000Y-83270000D01*
X66500000Y-76500000D02*
X68000000Y-76500000D01*
%TO.N,Net-(U18B--)*%
X176190000Y-85270000D02*
X176190000Y-82730000D01*
%TO.N,/PIN25V3*%
X74500000Y-135000000D02*
X75373500Y-134126500D01*
X62500000Y-135500000D02*
X63000000Y-135000000D01*
X63058508Y-138000000D02*
X62000000Y-136941492D01*
X62000000Y-136941492D02*
X61508592Y-136941492D01*
X61067100Y-136500000D02*
X62067100Y-135500000D01*
X62067100Y-135500000D02*
X62500000Y-135500000D01*
X61508592Y-136941492D02*
X61067100Y-136500000D01*
X75373500Y-134126500D02*
X91420000Y-134126500D01*
X63000000Y-135000000D02*
X70000000Y-135000000D01*
X63887500Y-138000000D02*
X63058508Y-138000000D01*
%TO.N,Net-(U29-RCLK)*%
X68112500Y-138500000D02*
X71000000Y-138500000D01*
X71000000Y-133500000D02*
X70500000Y-133000000D01*
X71000000Y-138500000D02*
X71000000Y-133500000D01*
X70500000Y-133000000D02*
X69000000Y-133000000D01*
%TO.N,/3.3V*%
X99300000Y-149000000D02*
X99500000Y-149200000D01*
X81500000Y-149000000D02*
X99300000Y-149000000D01*
X79960000Y-147460000D02*
X81500000Y-149000000D01*
X73500000Y-138000000D02*
X79960000Y-144460000D01*
X79960000Y-144460000D02*
X79960000Y-147230000D01*
X79960000Y-147230000D02*
X79960000Y-147460000D01*
X68112500Y-138000000D02*
X70350000Y-138000000D01*
X70350000Y-138000000D02*
X70425000Y-137925000D01*
%TO.N,/PIN26V3*%
X72000000Y-134000000D02*
X74666500Y-136666500D01*
X60500000Y-136500000D02*
X63000000Y-134000000D01*
X62500000Y-138500000D02*
X60500000Y-136500000D01*
X63887500Y-138500000D02*
X62500000Y-138500000D01*
X63000000Y-134000000D02*
X70000000Y-134000000D01*
X74666500Y-136666500D02*
X91420000Y-136666500D01*
%TO.N,Net-(J1-Pin_2)*%
X57250000Y-145500000D02*
X49750000Y-138000000D01*
X49750000Y-138000000D02*
X48827500Y-138000000D01*
%TO.N,Net-(C12-Pad2)*%
X183810000Y-45500000D02*
X180000000Y-45500000D01*
X180000000Y-45500000D02*
X178000000Y-43500000D01*
X170500000Y-43500000D02*
X166500000Y-47500000D01*
X178000000Y-43500000D02*
X170500000Y-43500000D01*
X166500000Y-47500000D02*
X164750000Y-47500000D01*
%TO.N,/BUS13*%
X49000000Y-68000000D02*
X64000000Y-68000000D01*
X74690000Y-80730000D02*
X68500000Y-74540000D01*
X67000000Y-68000000D02*
X68500000Y-68000000D01*
X48500000Y-74000000D02*
X48500000Y-68500000D01*
X52048000Y-77548000D02*
X48500000Y-74000000D01*
X48500000Y-68500000D02*
X49000000Y-68000000D01*
X53220000Y-77548000D02*
X52048000Y-77548000D01*
X68500000Y-74540000D02*
X68500000Y-68000000D01*
%TO.N,/BUS14*%
X56500000Y-56000000D02*
X58500000Y-54000000D01*
X68000000Y-49300000D02*
X68000000Y-48500000D01*
X60500000Y-48500000D02*
X68000000Y-48500000D01*
X55000000Y-56000000D02*
X56500000Y-56000000D01*
X74690000Y-55990000D02*
X68000000Y-49300000D01*
X60000000Y-49000000D02*
X60500000Y-48500000D01*
%TO.N,/BUS24*%
X47704000Y-51500000D02*
X53220000Y-57016000D01*
X78000000Y-52000000D02*
X73500000Y-47500000D01*
X47000000Y-47500000D02*
X47000000Y-51500000D01*
X73500000Y-47500000D02*
X47000000Y-47500000D01*
X47000000Y-51500000D02*
X47704000Y-51500000D01*
X74690000Y-58530000D02*
X78000000Y-55220000D01*
X78000000Y-55220000D02*
X78000000Y-52000000D01*
%TO.N,Net-(Q1-C)*%
X86500000Y-103500000D02*
X87595000Y-102405000D01*
X90730000Y-113640000D02*
X90640000Y-113640000D01*
X86500000Y-109500000D02*
X86500000Y-103500000D01*
X87595000Y-102405000D02*
X88690000Y-103500000D01*
X90640000Y-113640000D02*
X86500000Y-109500000D01*
X86500000Y-101000000D02*
X86500000Y-101310000D01*
X86500000Y-101310000D02*
X87595000Y-102405000D01*
%TO.N,Net-(Q1-B)*%
X96310000Y-107500000D02*
X92000000Y-111810000D01*
X92000000Y-111810000D02*
X92000000Y-113640000D01*
%TO.N,Net-(Q2-C)*%
X86460000Y-83270000D02*
X88690000Y-85500000D01*
X82310000Y-80730000D02*
X82310000Y-83270000D01*
X82310000Y-83270000D02*
X86270000Y-83270000D01*
X86270000Y-83270000D02*
X86460000Y-83270000D01*
%TO.N,Net-(Q3-C)*%
X82310000Y-58530000D02*
X82310000Y-55990000D01*
%TO.N,Net-(Q3-B)*%
X96810000Y-53000000D02*
X91540000Y-58270000D01*
X91540000Y-58270000D02*
X91540000Y-68000000D01*
%TO.N,/TX2*%
X88000000Y-97000000D02*
X90000000Y-97000000D01*
X101620000Y-81380000D02*
X101500000Y-81500000D01*
X104000000Y-81380000D02*
X101620000Y-81380000D01*
X86500000Y-98500000D02*
X88000000Y-97000000D01*
X91500000Y-104690000D02*
X88690000Y-107500000D01*
X90000000Y-97000000D02*
X91500000Y-97000000D01*
X98500000Y-88500000D02*
X90000000Y-97000000D01*
X91500000Y-97000000D02*
X91500000Y-104690000D01*
X100500000Y-88500000D02*
X98500000Y-88500000D01*
%TO.N,/RX3*%
X109000000Y-78760000D02*
X109000000Y-74000000D01*
X88690000Y-81450000D02*
X90500000Y-83260000D01*
X83500000Y-87000000D02*
X82310000Y-85810000D01*
X111620000Y-81380000D02*
X109000000Y-78760000D01*
X91000000Y-74425000D02*
X91000000Y-78500000D01*
X90500000Y-83260000D02*
X90500000Y-87000000D01*
X90500000Y-87000000D02*
X83500000Y-87000000D01*
%TO.N,/TX3*%
X88000000Y-78190000D02*
X88690000Y-77500000D01*
X86000000Y-78190000D02*
X88000000Y-78190000D01*
X104000000Y-86460000D02*
X99500000Y-81960000D01*
X82310000Y-78190000D02*
X86000000Y-78190000D01*
X99500000Y-81960000D02*
X99500000Y-75000000D01*
%TO.N,/RX4*%
X107000000Y-68500000D02*
X99500000Y-61000000D01*
X86330000Y-57050000D02*
X82310000Y-61070000D01*
X99500000Y-61000000D02*
X99500000Y-58500000D01*
X89190000Y-57050000D02*
X86330000Y-57050000D01*
X111620000Y-89000000D02*
X107000000Y-84380000D01*
X107000000Y-84380000D02*
X107000000Y-68500000D01*
%TO.N,/TX4*%
X82310000Y-53450000D02*
X86500000Y-53450000D01*
X104000000Y-89000000D02*
X98500000Y-83500000D01*
X88740000Y-53450000D02*
X89190000Y-53000000D01*
X86500000Y-53450000D02*
X88740000Y-53450000D01*
X98500000Y-83500000D02*
X98500000Y-55000000D01*
%TO.N,/PIN13*%
X106000000Y-75760000D02*
X104000000Y-73760000D01*
X106000000Y-77500000D02*
X106000000Y-75760000D01*
X107500000Y-95000000D02*
X107500000Y-89000000D01*
X131760000Y-94960000D02*
X130960001Y-95759999D01*
X119000000Y-95000000D02*
X107500000Y-95000000D01*
X119759999Y-95759999D02*
X119000000Y-95000000D01*
X130960001Y-95759999D02*
X119759999Y-95759999D01*
%TO.N,/RX*%
X115460000Y-86460000D02*
X111620000Y-86460000D01*
X131760000Y-87340000D02*
X126100000Y-93000000D01*
X126100000Y-93000000D02*
X122000000Y-93000000D01*
X122000000Y-93000000D02*
X115460000Y-86460000D01*
%TO.N,/TX*%
X104000000Y-83920000D02*
X110000000Y-89920000D01*
X110000000Y-94000000D02*
X127640000Y-94000000D01*
X110000000Y-89920000D02*
X110000000Y-94000000D01*
X127640000Y-94000000D02*
X131760000Y-89880000D01*
%TO.N,/PIN12*%
X129180000Y-95000000D02*
X131760000Y-92420000D01*
X117500000Y-75000000D02*
X117500000Y-86000000D01*
X113500000Y-71000000D02*
X117500000Y-75000000D01*
X111000000Y-71000000D02*
X113500000Y-71000000D01*
X121000000Y-95000000D02*
X129180000Y-95000000D01*
X108000000Y-74000000D02*
X111000000Y-71000000D01*
%TO.N,SW3*%
X53110000Y-99658000D02*
X48500000Y-99658000D01*
X51500000Y-109000000D02*
X63500000Y-121000000D01*
X53220000Y-79580000D02*
X47580000Y-79580000D01*
X48000000Y-105500000D02*
X48500000Y-106000000D01*
X48000000Y-103500000D02*
X48500000Y-103000000D01*
X47580000Y-79580000D02*
X47500000Y-79500000D01*
X76000000Y-123500000D02*
X102000000Y-123500000D01*
X47500000Y-81000000D02*
X47500000Y-79500000D01*
X114500000Y-132500000D02*
X112500000Y-134500000D01*
X48500000Y-109000000D02*
X51500000Y-109000000D01*
X47952000Y-59048000D02*
X47500000Y-59500000D01*
X64500000Y-122000000D02*
X64500000Y-122500000D01*
X112500000Y-140810000D02*
X116690000Y-145000000D01*
X112500000Y-134500000D02*
X112500000Y-140810000D01*
X102000000Y-123500000D02*
X104500000Y-126000000D01*
X53220000Y-59048000D02*
X47952000Y-59048000D01*
X48500000Y-99658000D02*
X48500000Y-101000000D01*
X47658000Y-99658000D02*
X47500000Y-99500000D01*
X75500000Y-123000000D02*
X76000000Y-123500000D01*
X47500000Y-79500000D02*
X47500000Y-62000000D01*
X48500000Y-99658000D02*
X47658000Y-99658000D01*
X48500000Y-106000000D02*
X48500000Y-109000000D01*
X47500000Y-60500000D02*
X47500000Y-59500000D01*
X48000000Y-105500000D02*
X48000000Y-103500000D01*
X104500000Y-126000000D02*
X105500000Y-126000000D01*
X47500000Y-99500000D02*
X47500000Y-82500000D01*
X63500000Y-121000000D02*
X64500000Y-122000000D01*
%TD*%
M02*
