M48
; DRILL file {KiCad 9.0.6} date 2026-08-07T03:21:29+0300
; FORMAT={-:-/ absolute / metric / decimal}
; #@! TF.CreationDate,2026-08-07T03:21:29+03:00
; #@! TF.GenerationSoftware,Kicad,Pcbnew,9.0.6
; #@! TF.FileFunction,Plated,1,2,PTH
FMAT,2
METRIC
; #@! TA.AperFunction,Plated,PTH,ViaDrill
T1C0.300
; #@! TA.AperFunction,Plated,PTH,ComponentDrill
T2C0.500
; #@! TA.AperFunction,Plated,PTH,ComponentDrill
T3C0.750
; #@! TA.AperFunction,Plated,PTH,ComponentDrill
T4C0.800
; #@! TA.AperFunction,Plated,PTH,ComponentDrill
T5C0.890
; #@! TA.AperFunction,Plated,PTH,ComponentDrill
T6C1.000
; #@! TA.AperFunction,Plated,PTH,ComponentDrill
T7C1.016
; #@! TA.AperFunction,Plated,PTH,ComponentDrill
T8C1.100
; #@! TA.AperFunction,Plated,PTH,ComponentDrill
T9C1.200
; #@! TA.AperFunction,Plated,PTH,ComponentDrill
T10C1.300
; #@! TA.AperFunction,Plated,PTH,ComponentDrill
T11C1.570
%
G90
G05
T1
X44.5Y-55.0
X46.5Y-62.5
X47.5Y-60.5
X47.5Y-62.0
X47.5Y-81.0
X47.5Y-82.5
X48.5Y-55.0
X48.5Y-101.0
X48.5Y-103.0
X56.5Y-60.5
X56.5Y-80.5
X56.5Y-100.5
X57.5Y-58.0
X57.5Y-78.5
X57.5Y-98.5
X58.5Y-54.0
X59.5Y-136.0
X60.0Y-49.0
X62.014Y-136.367
X63.0Y-88.0
X63.5Y-76.5
X63.5Y-96.5
X64.0Y-68.0
X64.5Y-122.5
X66.0Y-88.0
X66.5Y-76.5
X66.5Y-96.0
X66.5Y-137.5
X67.0Y-68.0
X67.5Y-141.0
X70.0Y-134.0
X70.0Y-135.0
X70.425Y-136.5
X70.425Y-137.925
X72.0Y-134.0
X72.0Y-136.5
X73.0Y-124.5
X73.5Y-138.0
X74.5Y-129.5
X74.5Y-135.0
X75.5Y-123.0
X76.5Y-127.0
X78.0Y-145.5
X79.0Y-132.5
X82.5Y-145.0
X85.0Y-73.0
X85.0Y-80.0
X85.0Y-88.5
X85.0Y-96.0
X86.0Y-78.19
X86.27Y-83.27
X86.33Y-57.05
X86.5Y-53.45
X86.5Y-98.5
X86.5Y-101.0
X90.5Y-83.26
X91.0Y-74.425
X91.0Y-78.5
X98.5Y-55.0
X99.5Y-58.5
X99.5Y-75.0
X99.5Y-149.2
X100.5Y-88.5
X100.5Y-146.5
X101.5Y-81.5
X102.5Y-146.5
X104.0Y-98.0
X104.0Y-127.5
X105.5Y-126.0
X105.5Y-141.5
X106.0Y-77.5
X106.5Y-125.5
X107.5Y-89.0
X107.5Y-141.5
X108.0Y-74.0
X109.0Y-74.0
X110.5Y-125.5
X111.5Y-146.0
X114.5Y-132.5
X114.5Y-136.0
X116.5Y-96.0
X117.5Y-86.0
X121.0Y-95.0
X121.0Y-118.5
X123.0Y-117.5
X123.0Y-125.5
X125.0Y-117.0
X126.5Y-121.5
X127.0Y-81.5
X127.5Y-120.0
X128.0Y-119.0
X129.0Y-127.5
X129.0Y-132.0
X129.873Y-109.127
X130.5Y-121.5
X133.0Y-121.0
X134.575Y-98.0
X137.0Y-121.0
X138.5Y-88.5
X138.5Y-92.0
X139.0Y-124.0
X139.5Y-100.5
X140.5Y-103.5
X141.0Y-59.0
X141.5Y-51.5
X141.5Y-125.5
X142.0Y-101.5
X142.5Y-106.0
X143.0Y-97.0
X144.0Y-124.5
X144.5Y-104.0
X144.5Y-122.0
X144.5Y-125.5
X150.5Y-96.5
X152.0Y-68.0
X152.5Y-66.0
X153.5Y-69.5
X155.0Y-71.5
X155.5Y-63.0
X157.5Y-63.0
X158.5Y-65.5
X160.0Y-106.0
X162.5Y-109.0
X164.5Y-108.5
X165.0Y-137.0
X168.0Y-107.5
X168.0Y-140.0
X170.5Y-109.0
X174.0Y-144.5
X175.0Y-100.0
X177.0Y-96.5
X177.0Y-144.5
X179.75Y-84.25
X187.81Y-65.5
X188.0Y-146.0
X189.75Y-74.25
X196.5Y-143.0
X197.0Y-54.0
X201.5Y-94.0
X202.0Y-90.5
X205.0Y-92.0
X208.0Y-90.5
X208.735Y-65.5
X218.5Y-121.0
X219.0Y-118.0
T2
X67.1Y-133.0
X69.0Y-133.0
X193.625Y-52.0
X193.625Y-53.0
X219.0Y-111.225
X220.0Y-111.225
T3
X90.27Y-68.0
X90.73Y-91.14
X90.73Y-113.64
X91.54Y-68.0
X92.0Y-91.14
X92.0Y-113.64
X92.81Y-68.0
X93.27Y-91.14
X93.27Y-113.64
T4
X57.25Y-145.5
X59.75Y-145.5
X71.0Y-144.5
X73.5Y-144.5
X74.69Y-53.45
X74.69Y-55.99
X74.69Y-58.53
X74.69Y-61.07
X74.69Y-78.19
X74.69Y-80.73
X74.69Y-83.27
X74.69Y-85.81
X74.88Y-99.19
X74.88Y-101.73
X74.88Y-104.27
X74.88Y-106.81
X77.0Y-67.5
X77.0Y-113.5
X77.25Y-91.5
X79.5Y-67.5
X79.5Y-113.5
X79.75Y-91.5
X82.31Y-53.45
X82.31Y-55.99
X82.31Y-58.53
X82.31Y-61.07
X82.31Y-78.19
X82.31Y-80.73
X82.31Y-83.27
X82.31Y-85.81
X82.5Y-99.19
X82.5Y-101.73
X82.5Y-104.27
X82.5Y-106.81
X88.69Y-77.5
X88.69Y-81.45
X88.69Y-85.5
X88.69Y-99.5
X88.69Y-103.5
X88.69Y-107.5
X89.19Y-53.0
X89.19Y-57.05
X89.19Y-61.1
X96.31Y-77.5
X96.31Y-81.45
X96.31Y-85.5
X96.31Y-99.5
X96.31Y-103.5
X96.31Y-107.5
X96.81Y-53.0
X96.81Y-57.05
X96.81Y-61.1
X104.0Y-73.76
X104.0Y-76.3
X104.0Y-78.84
X104.0Y-81.38
X104.0Y-83.92
X104.0Y-86.46
X104.0Y-89.0
X104.0Y-91.54
X111.62Y-73.76
X111.62Y-76.3
X111.62Y-78.84
X111.62Y-81.38
X111.62Y-83.92
X111.62Y-86.46
X111.62Y-89.0
X111.62Y-91.54
X114.0Y-107.5
X114.0Y-112.5
X116.69Y-129.76
X116.69Y-132.3
X116.69Y-134.84
X116.69Y-137.38
X116.69Y-139.92
X116.69Y-142.46
X116.69Y-145.0
X116.69Y-147.54
X119.0Y-107.5
X119.0Y-112.5
X122.5Y-75.19
X122.5Y-82.81
X122.5Y-87.295
X122.5Y-89.795
X124.31Y-129.76
X124.31Y-132.3
X124.31Y-134.84
X124.31Y-137.38
X124.31Y-139.92
X124.31Y-142.46
X124.31Y-145.0
X124.31Y-147.54
X125.0Y-107.56
X125.0Y-112.44
X128.795Y-146.0
X131.295Y-146.0
X131.76Y-64.48
X131.76Y-67.02
X131.76Y-69.56
X131.76Y-72.1
X131.76Y-74.64
X131.76Y-77.18
X131.76Y-79.72
X131.76Y-82.26
X131.76Y-84.8
X131.76Y-87.34
X131.76Y-89.88
X131.76Y-92.42
X131.76Y-94.96
X131.76Y-97.5
X131.76Y-100.04
X131.76Y-102.58
X131.76Y-105.12
X131.76Y-107.66
X131.76Y-110.2
X131.76Y-112.74
X133.19Y-131.19
X133.19Y-133.73
X133.19Y-136.27
X133.19Y-138.81
X140.81Y-131.19
X140.81Y-133.73
X140.81Y-136.27
X140.81Y-138.81
X143.295Y-146.0
X145.795Y-146.0
X147.0Y-64.48
X147.0Y-67.02
X147.0Y-69.56
X147.0Y-72.1
X147.0Y-74.64
X147.0Y-77.18
X147.0Y-79.72
X147.0Y-82.26
X147.0Y-84.8
X147.0Y-87.34
X147.0Y-89.88
X147.0Y-92.42
X147.0Y-94.96
X147.0Y-97.5
X147.0Y-100.04
X147.0Y-102.58
X147.0Y-105.12
X147.0Y-107.66
X147.0Y-110.2
X147.0Y-112.74
X158.69Y-77.69
X158.69Y-85.31
X162.25Y-47.5
X163.69Y-77.69
X163.69Y-85.31
X164.25Y-146.0
X164.75Y-47.5
X166.75Y-146.0
X168.5Y-51.5
X168.568Y-57.0
X169.008Y-78.19
X169.19Y-86.69
X171.0Y-51.5
X171.068Y-57.0
X171.508Y-78.19
X171.69Y-86.69
X176.19Y-45.5
X176.19Y-50.19
X176.19Y-52.73
X176.19Y-55.27
X176.19Y-57.81
X176.19Y-80.19
X176.19Y-82.73
X176.19Y-85.27
X176.19Y-87.81
X177.54Y-72.94
X177.54Y-75.44
X181.69Y-73.0
X181.69Y-75.5
X183.81Y-45.5
X183.81Y-50.19
X183.81Y-52.73
X183.81Y-55.27
X183.81Y-57.81
X183.81Y-80.19
X183.81Y-82.73
X183.81Y-85.27
X183.81Y-87.81
X186.88Y-73.19
X188.182Y-87.0
X188.19Y-57.5
X188.44Y-79.69
X190.682Y-87.0
X190.94Y-79.69
X193.75Y-48.0
X194.5Y-73.19
X195.69Y-80.38
X195.69Y-88.0
X195.81Y-57.5
X196.25Y-48.0
X200.19Y-80.38
X200.19Y-88.0
X204.69Y-80.38
X204.69Y-88.0
X209.69Y-94.725
X209.69Y-98.225
X217.31Y-94.725
X217.31Y-98.225
X221.19Y-94.725
X221.19Y-98.225
X228.81Y-94.725
X228.81Y-98.225
T5
X53.11Y-95.594
X53.11Y-97.626
X53.11Y-99.658
X53.11Y-101.69
X53.22Y-54.984
X53.22Y-57.016
X53.22Y-59.048
X53.22Y-61.08
X53.22Y-75.516
X53.22Y-77.548
X53.22Y-79.58
X53.22Y-81.612
X54.89Y-94.578
X54.89Y-96.61
X54.89Y-98.642
X54.89Y-100.674
X55.0Y-53.968
X55.0Y-56.0
X55.0Y-58.032
X55.0Y-60.064
X55.0Y-74.5
X55.0Y-76.532
X55.0Y-78.564
X55.0Y-80.596
T6
X159.0Y-49.0
X159.0Y-51.54
X159.0Y-54.08
X159.0Y-56.62
X163.5Y-54.0
X163.5Y-56.54
X189.0Y-49.225
X189.0Y-51.765
X200.0Y-49.92
X200.0Y-52.46
X200.0Y-55.0
X209.0Y-136.725
X209.0Y-139.265
X214.0Y-103.95
X214.0Y-106.49
X214.5Y-112.225
X214.5Y-114.765
X214.5Y-142.5
X214.5Y-145.04
X215.46Y-72.225
X216.5Y-78.225
X216.5Y-80.765
X216.5Y-86.225
X216.5Y-88.765
X218.0Y-72.225
X219.5Y-104.225
X219.5Y-106.765
X220.54Y-72.225
X221.5Y-78.225
X221.5Y-80.765
X221.5Y-86.225
X221.5Y-88.765
X223.08Y-72.225
X224.0Y-112.45
X224.0Y-114.99
X225.0Y-104.225
X225.0Y-106.765
T7
X91.42Y-131.587
X91.42Y-134.126
X91.42Y-136.666
X91.42Y-139.207
X91.42Y-141.746
X91.42Y-144.286
X101.58Y-131.587
X101.58Y-134.126
X101.58Y-136.666
X101.58Y-139.207
X101.58Y-141.746
X101.58Y-144.286
T8
X79.96Y-147.23
X82.5Y-147.23
X85.04Y-147.23
X177.92Y-147.23
X180.46Y-147.23
X183.0Y-147.23
T9
X162.013Y-134.0
X169.513Y-134.0
T10
X48.828Y-133.0
X48.828Y-138.0
T11
X54.0Y-90.0
X54.0Y-106.26
X54.11Y-49.39
X54.11Y-65.65
X54.11Y-69.922
X54.11Y-86.182
M30
